<?xml version="1.0" encoding="UTF-8"?>
<svg id="Calque_1_Image" data-name="Calque 1 Image" xmlns="http://www.w3.org/2000/svg" viewBox="0 0 842.16 595.44">
  <defs>
    <style>
      .cls-1 {
        fill: #fff;
        stroke-width: 0px;
      }
    </style>
  </defs>
  <path class="cls-1" d="M668.16,245.97c0,1.34,0,2.12,0,2.91.01,5.03.04,10.06.02,15.1,0,2.35.9,4.06,2.86,5.44,3.59,2.53,5.94,6.02,6.93,10.32.85,3.66,1.55,7.35,2.29,11.03.05.25-.06.54-.55.91-.67-1.65-1.39-3.28-2-4.96-1.36-3.72-3.16-7.18-6.05-9.95-.9-.86-1.97-1.53-3.1-2.4-.82,1.38-1,2.59-1.02,3.86-.04,2.56-.22,5.12-.11,7.67.06,1.31.38,2.71.97,3.88,3.85,7.69,13.15,12.87,21.72,12.17,2.38-.19,4.62-.11,6.51,1.65.83.77,1.89.64,2.96.5,6.35-.83,12.72-1.38,19.13-1.26,1.28.02,2.57.03,3.82.25.5.09.9.74,1.34,1.14-.42.41-.76,1.04-1.26,1.19-.97.31-2.03.46-3.05.49-4.47.15-8.95.26-13.43.33-2.62.04-2.93.94-2.61,3.07.8,5.21,1.43,10.43,2.86,15.54.85,3.05,1.21,6.28,1.38,9.46.44,8.35,1.94,16.52,4.09,24.55.85,3.18,2.59,6.18,4.24,9.07,1.35,2.36,3.8,3.59,6.28,4.6,4.34,1.78,8.89,2.56,13.55,2.82,9.58.54,19.16,1.06,28.74,1.61.79.05,1.59.18,2.37.35,1.18.25,1.75,1.11,1.82,2.24.08,1.25-.89,1.58-1.86,1.79-4.38.91-8.76,1.83-13.15,2.7-7.93,1.58-15.96,2.37-24.02,2.99-2.14.17-4.35.35-6.37,1-6.62,2.14-10.4,6.86-11.65,13.65-.37,2.04.14,2.78,2.2,3.23,1.4.31,2.84.47,4.25.75.61.12,1.19.37,1.8.98-.63.15-1.26.36-1.9.43-1.59.19-3.18.32-4.77.47-1.29.12-2.07.8-2.2,2.11-.09.95-.18,1.92-.13,2.87.1,2.2.54,2.66,2.72,2.78,3.67.2,7.35.34,11.02.49,2,.08,4,.13,5.99.21,1.62.06,3.13.38,4.54,1.31.75.5,1.77.8,2.68.82,8.15.22,16.31.38,24.46.52,1.98.03,3.95-.15,6.02-.97-.78-1.16-1.9-1.27-2.91-1.59-2.75-.85-4.21-2.24-5.33-5.06.57-.91,1.48-.77,2.34-.68,5.97.59,11.93,1.16,17.89,1.81,2.78.3,5.55.71,8.31,1.14.93.15,1.94.35,2.72.84.57.36,1.16,1.25,1.13,1.87-.03.62-.7,1.53-1.29,1.74-2.1.75-4.25,1.46-6.44,1.83-6.54,1.11-13.1,2.09-19.66,3.06-5.87.87-11.75,1.03-17.69.63-4.44-.3-8.94.24-13.41.31-6.79.1-13.59.12-20.38.17-.48,0-.96-.07-1.44-.06-2.22.07-3.03.59-3.57,2.79-.45,1.85-.77,3.77-.84,5.66-.36,9.19-.61,18.38-.94,27.57-.06,1.75-.4,3.5-.5,5.25-.2,3.58-.32,7.17-.5,10.75-.07,1.54-.46,2.99-1.64,4.23-1.22-.93-1.49-2.26-1.64-3.57-.19-1.59-.17-3.2-.35-4.78-.24-2.13-.68-4.24-.87-6.37-.24-2.62-.4-5.25-.44-7.88-.14-8.63-.2-17.27-.34-25.91-.02-1.19-.13-2.41-.43-3.55-.63-2.41-1.43-2.94-3.95-2.88-3.36.08-6.71.29-10.07.26-11.83-.09-23.67-.3-35.5-.39-8.64-.07-17.27-.1-25.91-.04-2.47.02-4.94.36-7.4.64-4.31.5-8.59.41-12.92.04-5.57-.47-11.18-.57-16.77-.74-1.08-.03-2.17.41-3.26.62-1.01.2-2.02.39-3.03.57-2.08.37-2.78,1.15-2.14,3.13,1.84,5.71,3.74,11.41,8.49,15.58,2.1,1.84,2.51,4.21,1.43,6.76-.54,1.29-1.59,2.01-2.89,2.29-.93.2-1.9.25-2.85.26-5.44.04-10.88.02-16.31.09-1.67.02-3.34.31-5.02.35-1.67.04-3.34-.12-5.01-.12-3.03,0-6.05.03-9.08.08-1.83.03-3.68.3-5.5.15-3.36-.27-4.77-2.8-3.21-5.78.69-1.32,1.72-2.5,2.77-3.57,3.78-3.88,6.85-8.23,8.91-13.25.21-.52.41-1.04.59-1.57,1.09-3.22.46-4.13-2.86-4.13-3.92,0-7.84-.12-11.75.03-3.19.12-6.36.55-9.54.9-.67.07-1.3.41-2.2.71,1.68,3.41,3.77,6,7.05,7.49.94.43,1.95.74,2.86,1.24,1.97,1.07,2.51,2.46,1.3,4.36-1.88,2.96-3.99,5.78-6.09,8.58-.76,1.01-1.78,1.83-2.72,2.7-4.18,3.88-9.11,4.8-14.48,3.34-1.49-.41-2.88-1.34-4.21-2.2-1.47-.95-2.84-2.07-4.22-3.17-1.56-1.24-3.18-1.36-4.9-.39-.7.39-1.4.78-2.1,1.16-6.28,3.46-12.9,5.53-20.17,5.13-2.95-.16-5.94.08-8.85-.3-4.62-.6-8.52-2.96-12.37-5.49-5.14-3.38-8.25-7.8-8.74-14.08-.23-3.01-1.03-5.97-.73-9.05.17-1.69-.36-2.24-2.26-2.34-3.11-.16-6.24-.1-9.35-.24-3.99-.18-7.97-.43-11.95-.75-1.5-.12-2.97-.52-4.01-1.89.44-1.09,1.27-1.44,2.28-1.5,1.36-.07,2.72-.23,4.07-.15,6.26.38,12.46-.39,18.67-.86,3.02-.23,4.61-2.96,3.46-5.81-.18-.44-.45-.83-.81-1.47,2.91-1.31,4.38-4.05,6.39-6.28,1.94-2.15,4.54-3.7,6.34-6.66-1.31-.17-2.14-.34-2.98-.37-10.14-.41-20.29-.82-30.44-1.17-3.6-.12-7.2-.13-10.79-.11-3.05.01-3.68.66-3.73,3.64-.02,1.6-.03,3.2,0,4.8.06,2.8.49,3.15,3.35,2.83.79-.09,1.59-.19,2.39-.22.47-.02,1.07-.1,1.4.13.66.48,1.54,1.1,1.67,1.79.19.98-.81,1.5-1.72,1.61-1.74.21-3.5.31-5.25.45-.55.05-1.1.09-1.89.16,0,.75-.04,1.45,0,2.15.33,5.27.57,10.54,1.05,15.79.44,4.8,3.05,8.32,7.1,10.81,1.22.76,2.52,1.4,3.73,2.17,1.98,1.26,3.68,2.84,4.78,4.95,1.35,2.6.62,4.7-2.06,5.87-2.02.88-4.17,1.12-6.35.92-3.1-.29-6.21-.59-9.31-.95-4.39-.51-8.75-.56-13.15-.04-3.73.44-7.5.5-11.23-.3-.7-.15-1.39-.36-2.08-.55-4.01-1.05-4.6-5.51-1.86-8.13,1.5-1.43,3-2.89,4.57-4.24,2.67-2.28,3.92-5.21,4.05-8.64.09-2.32.09-4.64,0-6.95-.09-2.45-.59-2.68-2.94-2.3-2.75.44-5.54.63-8.31.95-.94.11-1.89.25-2.8.48-1.93.5-3.82,1.22-5.77,1.59-1.71.33-2.83,1.09-3.69,2.63-2.85,5.14-6.49,9.69-10.74,13.75-4.41,4.21-9.13,8.03-14.61,10.79-2.8,1.41-5.76,2.33-8.91,2.63-2.31.22-4.61.52-6.89.95-2.5.48-4.92.27-7.37-.29-3.74-.85-7.49-1.66-11.23-2.48-.39-.09-.78-.18-1.18-.23-2.07-.24-2.71.18-3.3,2.2-1.51,5.19-1.98,10.51-1.87,15.9.02.8-.05,1.62.12,2.39,1.38,6.26.64,12.58.64,18.88,0,6.16-.17,12.31-.32,18.47-.06,2.55-.43,5.11-.37,7.65.09,4.23.48,8.45.6,12.69.09,2.94.15,5.91-.15,8.83-.39,3.77-2.24,6.95-4.8,9.73-1.9,2.05-3.84,4.08-5.65,6.21-1.54,1.83-3.05,3.71-4.35,5.71-2.01,3.09-4.84,5.32-7.66,7.52-1.98,1.54-3.66,1.03-4.54-1.3-.53-1.39-.87-2.94-.86-4.42.03-3.75.51-7.51.43-11.26-.15-6.81.6-13.57,1.07-20.34.52-7.48,1.55-14.93,2.14-22.4.32-3.98.22-7.99.27-11.99.12-9.27.29-18.55.3-27.82,0-4.79-.35-9.59-.42-14.39-.03-2.23.28-4.46.32-6.69.04-2.23-.12-4.46-.12-6.69,0-2.39.07-4.77.13-7.16.04-1.44.21-2.87.15-4.3-.07-1.66-.67-2.06-2.35-1.84-.16.02-.32.04-.47.09-5.18,1.86-10.61,1.09-15.92,1.47-.92.07-1.93-.16-2.8-.49-4.48-1.73-9.13-1.27-13.75-1.15-1.15.03-1.73.7-1.9,1.78-.05.31-.08.64-.08.95-.13,6.71-.34,13.41-.34,20.12,0,2.7.43,5.41.75,8.11.55,4.6,1.38,9.18,1.69,13.8.3,4.38.2,8.79.08,13.18-.07,2.64-2.74,5.6-5.28,6.24-.52.13-1.17.23-1.64.04-2.51-.99-5.06-.42-7.59-.24-1.99.14-3.98.41-5.95.71-2.41.37-4.58-.02-6.55-1.57-.79-.62-1.78-1.06-2.75-1.37-2.7-.87-4.24-2.67-4.04-5.46.59-8.29,1.03-16.61,2.07-24.85.87-6.92.46-13.71-.44-20.54-.11-.85-.6-1.65-.82-2.5-.54-2.16-1.16-4.31-1.5-6.5-.36-2.3-.72-2.84-3.08-3.21-7.68-1.22-15.37-1.91-23.16-1.28-3.49.28-7.03-.1-10.54.12-4.54.29-9.07.85-13.6,1.33-2.26.24-4.4-.07-6.61-.65-3.23-.85-6.59-1.22-9.87-1.89-5.55-1.13-11.08-2.37-16.64-3.49-3.44-.69-6.92-1.24-10.37-1.88-1.49-.28-3-.51-4.44-.96-3.38-1.06-6.65-.87-9.78.73-2.98,1.53-6.15,2.22-9.45,2.41-.87.05-1.79.12-2.62-.08-3.53-.86-6.99-.38-10.45.38-.78.17-1.56.36-2.34.5-4.99.87-9.08-1.27-11.08-5.91-2.37-5.49-2.38-11.04-.12-16.56,2.09-5.11,6.91-8.44,12.41-8.18,9.64.46,19.06,2.17,27.9,6.23,2.02.93,3.99.89,6.08.57,6.4-.99,12.79-2.02,19.2-2.83,2.6-.33,5.26-.1,7.9-.12.72,0,1.46.14,2.14,0,4.44-.95,8.1.98,11.89,3.07-.22.58-.43,1.07-.6,1.58-.13.37-.4.85-.28,1.12.28.59.77,1.07,1.17,1.6.47-.46,1.22-.86,1.35-1.41.2-.8-.05-1.71-.11-2.73.61-.06,1.15-.22,1.66-.14,1.52.24,1.99,1.34,1.08,2.58-1.08,1.48-2.31,2.87-3.39,4.35-.69.95-1.24,2.01-1.93,3.15.72.51,1.27.96,1.86,1.31,2.14,1.25,2.71,1.11,3.91-1.13,1.06-2,2.82-3.21,4.62-4.42,1.37-.92,2.68-1.93,4.17-3.01-.71-.46-1.12-.7-1.5-.99-1.44-1.1-1.33-2.11.43-2.7,2.6-.88,5.32-1.2,8.05-.78,2.68.41,5.35.93,7.97,1.61,2.17.56,4.09.42,5.87-1.01,1.87-1.51,4.05-1.91,6.33-1.5,2.12.38,4.19.99,6.28,1.53,2.44.63,3.12.35,4.1-1.96.37-.87.62-1.82.74-2.76.47-3.66,1.34-7.21,2.57-10.7.47-1.33.78-2.78.82-4.19.07-2.71-.12-5.43-.17-8.15-.07-3.76-.18-7.51-.15-11.27.02-3.6.1-7.2.32-10.79.11-1.81.59-3.6.92-5.39.16-.86.32-1.72.58-2.55.33-1.05.52-2.28,1.19-3.06,2.47-2.85,5.77-3.88,9.46-3.71,1.09.05,1.79.62,1.85,1.8.01.24.06.48.1.71.47,2.47.79,2.73,3.2,3.08,4.1.58,8.19,1.21,12.24,1.81.71-.72.31-1.27-.17-1.71-2.12-1.96-4.23-3.88-7.38-4.09-1.29-.09-2.74-.25-3.59-1.57,5.01-3.11,12.13-1.41,14.07,4.44.83,2.49,1.42,5.02,2.79,7.35.57.97.11,2.61-.06,3.92-.09.68-.58,1.3-.95,2.06,2.09,2.66,2.3,5.76,1.95,9.03-.58,5.48-1.13,10.98-1.52,16.48-.32,4.38-.42,8.78-.56,13.17-.05,1.7-.28,3.3-1.01,4.88-.93,2.01-.37,2.85,1.88,2.79,2.15-.06,4.3-.42,6.45-.54,7.26-.41,14.53-.77,21.79-1.14,1.68-.09,3.36-.08,5.03-.24,1.46-.14,1.94-.67,2.15-2.11.09-.63.07-1.28.09-1.92.16-4.95.31-9.91.46-14.86.04-1.36.1-2.72.08-4.08-.05-3.34-1.59-5.8-4.57-7.31-1-.5-2.03-.94-3.05-1.39-3.32-1.45-4.31-3.67-3.18-7.13.47-1.42,1.33-2.56,2.6-3.34,2.45-1.5,4.86-3.11,7.42-4.4,3.29-1.65,6.01-3.91,8.35-6.7,1.44-1.71,2.84-3.49,4.48-4.99,1.58-1.44,3.37-2.7,5.21-3.79,2.44-1.44,5.15-1.62,7.9-.98,1.9.44,2.87,1.46,3.16,3.41.38,2.55-.26,4.91-1.33,7.2-.43.92-1.06,1.82-.43,3.22.76-.39,1.54-.71,2.22-1.16,1.2-.79,2.37-1.63,3.51-2.52,5.02-3.92,10.73-5.46,17.05-5.16,8.43.4,16.41,2.39,23.95,6.2,5.99,3.02,10.56,7.25,13.36,13.5,3.44,7.71,5.99,15.66,7.54,23.93.28,1.48.23,3.02.27,4.54.05,2.08-.03,4.16.07,6.24.08,1.66.52,2.14,2.17,2.31,1.42.15,2.87.09,4.31.06,3.12-.06,6.24-.09,9.35-.25,2.45-.13,2.96-.67,2.82-3.12-.39-6.69-.11-13.45-1.83-20.02-.18-.7-.36-1.39-.56-2.08-.87-2.92-2.65-5-5.39-6.4-1.62-.82-3.23-1.81-4.56-3.03-2.33-2.14-2.25-5.04.11-7.13,1.37-1.21,2.87-2.35,4.5-3.16,6.04-3.01,11.63-6.71,17.13-10.57,1.17-.82,2.45-1.53,3.77-2.05,1.82-.73,2.81-.31,3.79,1.41.51.9.86,1.89,1.29,2.83,1.03,2.23,1.78,2.52,3.9,1.46,1.14-.57,2.28-1.18,3.34-1.89,5.14-3.41,10.97-4.8,16.96-5.4,4.13-.41,7.82,1.18,11.16,3.62,5.46,4,10.11,14.91,5.51,23.63-.59,1.12-1.27,2.24-2.1,3.19-3.46,3.95-7.06,4.62-11.8,2.31-2.79-1.36-5.07-3.27-6.76-5.93-1.24-1.95-2.6-3.84-4.01-5.68-1.98-2.59-4.16-2.63-6.03.04-1.36,1.94-2.6,4.05-3.46,6.25-3.55,9.12-5.29,18.57-4.72,28.4.18,2.99.63,3.63,3.7,3.73,4.31.15,8.63.22,12.95.21,11.11-.03,22.23-.13,33.34-.17,2.85-.01,5.51-.66,8.11-1.84,6.48-2.94,13-5.77,19.5-8.66,3.48-1.55,6.53-3.63,8.92-6.69,3.03-3.89,3.57-8.05,1.28-12.32-1.73-3.22-3.86-6.25-6-9.23-1.32-1.85-3.33-2.69-5.66-2.58-.88.04-1.76.04-2.64.03-2.37-.02-4.37.83-6.03,2.5-1.3,1.3-2.6,2.6-3.9,3.9-2.34,2.35-5.06,4.16-7.97,5.7-4.39,2.33-8.2.39-8.98-4.54-.97-6.14,1.96-12.58,7.72-15.53,5.4-2.76,11.09-4.92,16.67-7.33.43-.19.93-.3,1.4-.3,5.67-.09,11.35-.49,16.97.73,4.45.97,8.21,3.08,11.16,6.56,2.22,2.63,4.37,5.31,6.54,7.97,1.6,1.96,2.57,4.22,3.04,6.7.74,3.87,1.02,7.75.44,11.68-.23,1.57-.2,3.19-.21,4.79-.02,5.36,0,10.72,0,16.08,0,.48-.01.96.02,1.44.12,2.25.69,2.83,2.87,2.96.16,0,.32,0,.48,0,8,.1,15.99.22,23.99.29,4.04.03,4.37-.26,3.88-4.21-.88-7.02-.53-14.05-.45-21.08.02-1.74.37-3.49.66-5.22.86-5.15,1.2-10.32.52-15.52-.11-.87-.24-1.75-.25-2.62-.03-9.52-.03-19.03-.03-28.55,0-.56-.05-1.16.13-1.67,1.21-3.51.45-6.95-.29-10.39-1.01-4.69-2.08-9.36-3.05-14.05-.85-4.1-3.11-7.11-6.72-9.17-1.11-.63-2.23-1.26-3.29-1.98-3.12-2.11-3.67-5.53-1.35-8.5.64-.81,1.36-1.6,2.2-2.2,1.94-1.4,3.98-2.65,5.97-4,2.58-1.74,5.14-3.51,7.69-5.28.59-.41,1.1-.94,1.71-1.32,5.13-3.26,10.23-6.56,15.41-9.73,2.46-1.51,4.85-.51,5.37,2.08.12.59-.04,1.26-.12,1.88-.21,1.58-.59,3.15-.64,4.74-.2,6.07-.22,12.15-.47,18.21-.17,4.07-.81,8.12-.87,12.19-.07,5.03.36,10.06.35,15.09-.01,6.95.16,13.93-.46,20.84-1.11,12.32-.36,24.61.05,36.9.15,4.47.7,8.92.8,13.39.12,5.11-.08,10.23-.11,15.35,0,1.36.04,2.72.15,4.07.16,1.95.49,2.25,2.48,2.56.16.02.32.06.47.07,8.31.34,16.61.78,24.92.97,9.67.22,19.35.17,29.02.34,7.75.14,15.5.45,23.26.65,1.2.03,2.4-.06,3.59-.15,1.23-.1,1.9-.81,1.86-2.05-.03-1.04,0-2.11-.26-3.1-.62-2.34-.37-4.56.38-6.83.42-1.27.7-2.64.76-3.97.08-1.78-.7-2.61-2.47-2.45-2.53.23-5.03.78-7.55,1.17-1.57.24-3.16.72-4.7.6-6.46-.47-12.91-1.07-19.35-1.74-1.49-.15-2.95-.69-4.37-1.19-.44-.15-1.03-.77-1-1.14.04-.53.46-1.22.93-1.49.66-.38,1.5-.54,2.28-.61,7.48-.68,14.95-1.5,22.49-1.38,3.99.06,7.99-.25,11.98-.46,2.9-.15,4.17-1.65,3.35-4.47-1.3-4.47-1.18-9-1.25-13.56-.05-2.95-.36-5.9-.47-8.86-.1-2.56-.12-5.12-.11-7.67.02-3.82.25-7.61-.63-11.43-.67-2.92-.46-6.04-.69-9.06-.14-1.83-.23-3.68-.59-5.47-.98-4.9-5.28-8.73-10.8-9.53-2.12-.31-4.3-.28-6.45-.3-7.75-.08-15.5-.12-23.25-.19-.48,0-.95-.08-1.45-.13.98-1.6,3.65-3.16,5.93-3.33,4.38-.33,8.77-.62,13.16-.84,4.07-.2,8.15-.3,12.23-.39,2.09-.04,3.89-.73,5.55-1.95,4.62-3.41,7.44-7.97,8.1-13.62.51-4.35.47-8.77.67-13.16.01-.32-.03-.64-.08-.96-.32-2.39-2.55-2.92-4.01-1.46-2.51,2.52-5.64,4.18-8.78,5.77-.99.5-2.05.9-3.11,1.22-2.14.63-4.3,1.21-6.48,1.72-1.32.31-2.67.56-4.02.62-3.35.14-6.71.18-10.07.22-2.3.03-4.44-.56-6.31-1.93-3.02-2.21-2.92-7.29.08-9.48,1.85-1.35,3.85-1.83,6.09-1.71,2.79.14,5.59.27,8.38.31,6.12.08,12.03-1.53,18.04-2.34,1.24-.17,2.48-.67,3.6-1.26,2.02-1.05,3.82-.88,5.58.5.49.38,1.05.66,1.51.94,1.45-.62,1.46-1.8,1.49-2.9.12-3.76.16-7.51.31-11.27.05-1.26.33-2.52.58-3.76.06-.29.42-.52,1.02-1.2ZM583.92,413.87c-1.03.19-1.78.4-2.54.46-.71.05-1.44-.09-2.15-.08-1.83.03-2.43.87-1.98,2.61.32,1.25,1.1,1.96,2.34,2.05,1.19.08,2.4.05,3.59,0,3.52-.18,7-.15,10.49.61,1.92.42,3.97.35,5.96.39,2.47.05,4.95-.09,7.42,0,5.83.19,11.66.52,17.49.68,9.98.27,19.97.41,29.96.71,4.3.13,8.61.85,12.9.71,9.34-.3,18.67-.97,28-1.52.79-.05,1.61-.19,2.33-.5.44-.19,1.04-.79,1.01-1.15-.05-.53-.51-1.15-.98-1.47-.41-.29-1.06-.28-1.61-.3-2.55-.09-5.11-.1-7.67-.21-4.18-.18-8.35-.41-12.53-.62-.01-.21-.02-.43-.04-.64.9-.11,1.81-.28,2.71-.32,5.19-.19,10.38-.44,15.57-.49,5.34-.05,4.89-.71,4.81-5.29-.04-2-.57-2.6-2.56-2.78-4.37-.39-8.75-.77-13.14-.93-4.79-.17-9.58-.05-14.37-.12-2.18-.03-4.29.17-6.35.95-3.34,1.26-6.68,1.16-10.08.02-1.95-.66-4.01-1.14-6.05-1.33-3.74-.35-7.49-.52-11.25-.62-7.35-.19-14.7-.27-22.05-.42-6.07-.12-12.14-.15-18.2-.46-5.34-.28-10.66-.91-16-1.35-1-.08-2.01-.01-3.18-.01.13,1.86.3,3.35.32,4.85.09,4.44.25,4.63,4.79,4.72,1.17.02,2.2.23,3.06,1.86ZM668.27,342.62c-.14,2.11-.24,4.51-.47,6.89-.79,7.95-.72,15.97-2.37,23.84-.48,2.27.78,3.27,3.1,2.8,3.58-.72,6.84-2.16,9.77-4.36,2.88-2.16,5.76-4.31,8.71-6.38,1.17-.82,2.43-1.58,3.76-2.08,1.93-.73,3.21-1.98,4.08-3.81,1.62-3.43,2.58-7.04,3-10.81.76-6.91,1.55-13.82,2.26-20.74.63-6.2,1.19-12.41,1.73-18.63.18-2.12-.44-2.79-2.51-2.91-.71-.04-1.43.07-2.14.16-1.51.19-3.01.55-4.52.59-5.15.12-9.85,1.77-14.51,3.79-3.51,1.52-5.71,3.99-6.57,7.69-1.8,7.78-3.79,15.55-3.3,23.94ZM326.12,394.98c0-.12,0-.23,0-.35,6.78.27,13.56.56,20.34.82,3.82.15,4.54-.49,3.78-4.25-.82-4.05-1.74-8.14-3.18-12.01-3.85-10.38-10.99-17.15-22.14-19.39-5.02-1.01-9.86-.61-14.64.86-4.18,1.28-6.67,4.22-7.4,8.57-.24,1.42-.42,2.84-.57,4.27-.3,2.86-.28,5.78-.91,8.56-.84,3.72-.13,7.31.15,10.95.09,1.2.8,1.88,2.03,1.94.64.03,1.28.03,1.92.03,6.87,0,13.73,0,20.6,0ZM524.15,412.51c-.06.21-.12.42-.19.63-2.13.8-4.39.6-6.59.59-9.75-.05-19.5-.19-29.25-.3-2.52-.03-4.95.39-7.2,1.52-1.75.89-3.55,1.38-5.52,1.35-.78-.01-1.64.1-2.31.45-.44.23-.77.97-.85,1.52-.11.78.55,1.08,1.24,1.15.55.06,1.12.05,1.67.04,4.87-.09,9.75-.17,14.62-.27,7.67-.16,15.34-.33,23-.48.8-.02,1.64-.1,2.38.12,2.89.87,5.86.62,8.81.72,3.83.13,7.67.24,11.5.41,4.31.19,8.62.45,12.93.66.72.03,1.45.03,2.15-.09,1.47-.24,2.39-1.56,2.28-3.17-.09-1.29-.43-1.61-2.32-1.77-1.99-.17-3.99-.22-5.98-.34-4.31-.26-8.61-.51-12.92-.8-1.31-.09-2.53-.41-2.98-1.88.73-1.51,2.07-1.61,3.46-1.75,2.53-.24,5.13-.31,7.57-.95,2.64-.69,5.22-1.45,7.97-1.47.95,0,1.91-.15,2.86-.29,1.36-.21,2.28-1.08,2.99-2.19.56-.87.26-1.56-.64-1.92-.58-.23-1.24-.31-1.86-.37-5.17-.48-10.37-.71-15.38-2.24-.67-.2-1.43-.2-2.14-.18-9.06.24-18.02-1.06-27.03-1.61-4.47-.28-8.92-.73-13.38-1.04-2.84-.2-5.63.11-7.99,1.88-1.79,1.34-3.5,2.79-5.17,4.28-1.31,1.17-2.37,2.55-2.88,4.66,1.14.17,2.12.44,3.1.44,4.87-.01,9.75-.14,14.62-.15,1.83,0,3.75-.11,5.47.37,3.07.87,6.16.8,9.27.86,2.72.05,5.44.02,8.15.14,1.51.07,3.02.29,4.51.58.71.14,1.35.58,2.03.88ZM327.41,406.9c0,.26,0,.52,0,.79-1.08.16-2.17.25-3.22.51-.47.12-1.2.59-1.2.9,0,.53.36,1.23.8,1.54.47.33,1.2.41,1.81.39,7.91-.19,15.82-.4,23.73-.64,1.67-.05,2.36-.72,2.32-2.35-.05-2-.24-3.99-.39-5.98-.1-1.26-.86-1.83-2.09-1.79-.88.03-1.75.12-2.63.13-2.55.01-5.1-.03-7.65,0-2.07.03-4.17-.07-6.2.26-6.21,1.03-12.38,1.33-18.56-.22-1.3-.33-2.69-.46-4.04-.43-5.91.17-11.82.38-17.73.68-6.7.34-13.39.98-20.1,1.17-8.87.26-17.74.21-26.61.3-.72,0-1.44-.03-2.16.02-2.12.14-2.58.85-2.07,3.29.42.03.88.06,1.34.11,1.1.12,2.33-.02,3.28.43,2.83,1.33,5.74,1.32,8.69.83,3.46-.58,6.91-1.29,10.35-1.97,2.02-.4,3.91-.52,5.64,1.03.58.52,1.6.72,2.44.76,6.46.32,12.93.69,19.4.8,5.35.09,10.7-.09,16.05-.25,5.11-.15,10.22-.47,15.33-.64,1.15-.04,2.31.2,3.47.31ZM329.17,444.46c3.38-.11,6.41-1.35,8.98-3.75,3.37-3.15,5.95-6.89,8.15-10.9.59-1.07,1.87-2.38.88-3.43-.7-.74-2.36-.85-3.56-.78-12.13.69-24.25,1.48-36.38,2.25-.96.06-1.92.11-2.87.26-1.71.26-2.08.79-1.66,2.42.28,1.08.73,2.12,1.02,3.2,1.47,5.43,5.29,8.35,10.55,9.21,4.88.8,9.85,1.04,14.9,1.53ZM681.81,402.53s0,.04,0,.06c4.23.25,8.45.5,12.68.74.48.03.96.05,1.44,0,1.43-.14,1.79-.72,1.29-2.09-.13-.37-.34-.72-.55-1.06-1.53-2.53-3.09-5.04-4.58-7.59-.77-1.32-1.8-2.2-3.3-2.55-1.45-.34-2.63-1.13-3.51-2.35-.99-1.38-2.35-2.11-4-2.38-1.02-.17-2.03-.41-3.05-.59-3.14-.57-6.27-1.23-9.43-1.64-2.75-.36-3.67.7-3.21,3.48.18,1.08.55,2.17,1.05,3.15,1.3,2.56,1.28,5.05-.06,7.57-.34.63-.67,1.28-.88,1.96-.48,1.56-.05,2.28,1.52,2.56.62.11,1.27.08,1.91.11,4.23.2,8.46.41,12.68.61ZM222.36,360.53c.27-.03.54-.05.81-.08.3.6.91,1.24.83,1.78-.27,1.81.52,3.21,1.81,4.86-1.71.47-3.09.86-5.2,1.44,1.31.79,2.2,1.32,3.09,1.85-.12.14-.24.27-.36.41-.1.83-.21,1.67-.33,2.66,1.48-.12,2.78-.23,4.26-.35-.38,1.51-1.35,2.09-2.32,2.62-.63.34-1.33.54-1.99.83-1.95.89-2.28,2.08-1.04,3.78.23.32.59.56.78.91,1.75,3.18,2.75,6.41.84,9.95-.42.78-.64,1.83-.54,2.71.31,2.61.72,5.23,1.28,7.8.59,2.68.46,5.21-.67,7.72-.3.67-.51,1.62-.26,2.24.81,2.05.18,3.56-1.36,4.9-3.16,2.75-2.11,4.48-1.07,7.05.63,1.55,2.38,1.77,3.51.51.52-.58.88-1.33,1.17-2.06,1.99-4.95,3.09-10.06,2.89-15.43-.24-6.46-1.4-12.89-.76-19.38,0-.08,0-.16-.02-.24-.54-3.98-.27-7.81,1.91-11.34.62-1,.51-1.97-.36-2.83-.33-.33-.62-.7-1.05-1.21.61-1.54,1.26-3.07,1.83-4.64.95-2.65,1.95-5.32-.49-7.8-.3-.31-.51-.88-.49-1.32.08-2.06.26-4.11.38-6.17.03-.59.23-1.42-.06-1.73-.55-.58-1.39-1.11-2.15-1.19-.94-.1-1.58.66-1.73,1.66-.16,1.1-.26,2.22-.44,3.32-.14.83-.53,1.53-1.45,1.7-.95.18-1.51-.37-1.87-1.15-.4-.87-.75-1.75-1.12-2.63-2.04.97-2.96,2.56-2.61,5.08.36,2.61.96,5.18,1.52,7.76.1.43.58.78,1.16,1.52.65-2.12,1.17-3.81,1.69-5.49ZM385.5,412.85c0-.15,0-.3.01-.46.26-.13.52-.33.79-.36,1.19-.11,2.4-.11,3.58-.26,2.04-.26,2.72-.95,2.6-2.98-.18-3.02-.49-6.04-.85-9.05-.17-1.41-.99-1.85-2.4-1.5-.53.13-1.11.31-1.53.64-1.76,1.37-3.76,1.6-5.89,1.51-2.15-.1-4.31-.15-6.46-.08-1.97.06-2.35.55-2.41,2.47-.03,1.04-.09,2.08-.05,3.11.05,1.43-.23,3.06.36,4.23.92,1.82.6,3.34-.01,5.02-.28.75-.56,1.5-.73,2.28-.46,2.01.12,2.8,2.18,3.08.55.08,1.11.07,1.67.1,3.66.21,7.34.3,10.99.67,4.12.42,4.39-.76,4.36-4.24,0-.08,0-.16,0-.24-.07-2.51-.33-2.8-2.83-3.26-1.13-.2-2.25-.45-3.37-.68ZM485.04,425.4c0,.07,0,.13,0,.2-1.92,0-3.83.02-5.75,0-2-.03-3.99-.17-5.99-.14-1.68.03-2.14.59-2.04,2.23.11,1.75.88,3.22,2.1,4.45,3.96,4.03,8.78,6.39,14.38,6.94,4.37.43,8.05-1,10.38-4.97.6-1.02,1.11-2.13,1.48-3.26,1.44-4.35.75-5.35-3.77-5.43-3.59-.06-7.19-.01-10.79-.01ZM315.52,415.13c.05.26.05.35.09.39.11.11.22.26.36.3,2.17.62,3.82,1.8,4.88,3.9.31.61,1.38,1.03,2.17,1.17,1.32.25,2.7.19,4.05.29,2.34.19,4.6.03,6.76-1.05.68-.34,1.52-.41,2.3-.51,3.95-.5,7.91-.95,11.86-1.44.55-.07,1.16-.13,1.6-.41.48-.31,1.11-.88,1.11-1.34,0-.44-.64-1.08-1.14-1.28-.71-.28-1.55-.27-2.34-.33-4.37-.31-8.75-.6-13.12-.88-4.21-.27-8.43-.64-12.65-.12-2.02.25-4.03.53-5.91,1.3ZM119.67,412.59c1.87,1.58,2.53,1.63,4.17.33,1.65-1.32,2.96-2.84,3.58-4.96.69-2.36,2.74-3.46,4.8-4.38.4-.18,1.1.3,1.66.48-.18.54-.25,1.18-.58,1.6-.32.41-1.08.49-1.37.91-.63.89-1.21,1.86-1.54,2.89-.17.52.26,1.24.53,2.3,3.89-2.44,6.95-4.97,8.7-8.83.03-.07.04-.15.06-.23.22-.86-.12-1.43-.98-1.59-.62-.12-1.27-.18-1.9-.14-3.26.25-6.55.39-9.77.9-1.68.27-3.33,1.09-4.83,1.93-1.42.8-2.25,2.18-2.35,3.97.51.25.95.43,1.36.66,1.55.87,1.64,1.52.35,2.69-.58.53-1.24.98-1.88,1.48ZM74.41,396.6c.34,2.87.85,3.49,3.33,4.05,2.69.61,5.39.48,8.06-.05,3.13-.63,3.11-.69,4.81,1.89.77,1.17,1.47,1.28,2.5.3.43-.41.7-.99,1.01-1.44-1.91-2.32-2.55-2.75-4.88-3.53-1.2-.41-2.41-.84-3.55-1.39-3.83-1.85-7.55-1.1-11.28.18ZM235.93,369.59c1.66-4.37,1.86-6.89,1.36-11.03-.22-1.89-.06-3.83,0-5.74.06-1.67.31-3.34.35-5.02.09-3.73-.06-3.85-3.68-3.6-.56.04-1.16-.03-1.66.16-.63.24-1.63.67-1.67,1.08-.06.64.39,1.65.93,1.97,3.72,2.23,4.32,5.7,4.06,9.56-.11,1.59-.27,3.18-.38,4.78-.1,1.44-.68,2.61-1.81,3.51-.42.33-.82.68-1.27,1.05.79,1.7,2.27,2.34,3.75,3.27ZM227.06,431.98c-1.09,1.75-1.11,3.57-1.1,5.39.04,3.98,1.67,7.62,2.6,11.4.09.35.7.57,1.06.85.17-.08.34-.17.51-.25-.27-4.69-.47-9.39-.85-14.07-.11-1.33-.9-2.49-2.22-3.32ZM170.7,412.81c.04.13.08.27.12.4.58-.29,1.14-.67,1.75-.86.55-.16,1.24-.33,1.72-.13,2.86,1.2,5.41.4,8.02-.98v-3.16c-2.49-1.01-4.84-.29-7.16.5-.65.22-1.33.6-1.8,1.08-.95.97-1.78,2.08-2.65,3.12ZM77.2,402.69c-1.48,1.51-1.86,3.17-.76,3.9,1.68,1.13,3.52,2.02,5.44,3.1.78-2.18,2.42-2.56,4.42-2.64-2.53-3.11-6.08-3.19-9.09-4.36ZM492.08,395.44c2.8,1.19,5.28.61,7.7.7,1.1.04,1.84-.5,2.11-1.55.34-1.32.06-2.53-.96-3.49-.79-.74-1.67-.89-2.62-.34-1.57.92-3.16,1.83-4.68,2.84-.54.37-.89,1.03-1.55,1.84ZM282.82,417.26c-.12,2.41.33,3.24,1.89,3.65,3.05.81,5.28-.36,6.57-3.44-2.36-.94-5.21-1.02-8.46-.21ZM105.75,409.19c1.7-1.41,3.33-2.68,4.85-4.05.75-.67.55-1.4-.31-1.96-1.66-1.08-3.82-1.08-4.89.05-1.34,1.42-1.33,4.01.35,5.97ZM67.1,408.18c2.09-2.57,3.09-5.37,2.35-8.71-2.71.25-3.56,1.41-3.1,3.97.27,1.49.48,3,.75,4.74ZM228.11,455.41c-1.82.68-2.52,1.9-3.04,3.25-.42,1.11.03,1.84,1.19,2.08,1.43.3,2.81-.71,2.71-2.19-.08-1.04-.54-2.05-.86-3.14ZM721.64,418.92c-3.49-.63-6.98-1.56-10.54-.48,3.41,2.03,7.02.34,10.54.48ZM215.04,484.84c2.6,4.74,2.74,4.87,4.61,4.39-.33-1.34-2.13-4.1-3.09-4.53-.33-.15-.83.06-1.52.14ZM231.49,472.32c1.68-1.47,1.51-2.8-.54-4.16-.13,1.45-.77,2.8.54,4.16ZM226.56,488.83c2,.5,3.44.29,5.24-.64-2.01-.82-3.47-.81-5.24.64ZM177.38,402.95c-.07-.28-.15-.55-.22-.83-.6-.05-1.31-.31-1.77-.07-.28.14-.25,1.03-.23,1.58,0,.17.43.33.78.57.53-.46.99-.86,1.44-1.25ZM228.95,465.6c.15-.2.3-.4.45-.61-.43-.18-.87-.51-1.29-.49-.47.02-.96.3-1.36.59-.14.1-.12.78-.02.81.39.16.85.25,1.26.2.34-.04.64-.33.96-.5ZM213.94,347.22c.46-.39.78-.66,1.11-.94-.18-.21-.44-.62-.53-.59-.38.15-.74.4-1.03.69-.05.05.24.45.45.83ZM196.59,410.42c-.46-.23-.77-.51-.93-.44-.29.13-.48.47-.71.72.22.18.49.54.64.5.3-.09.54-.4.99-.78Z"/>
  <path class="cls-1" d="M178.4,166.47c.25,1.41.47,2.24.55,3.08.35,3.9.45,7.84,1.06,11.7.56,3.53,1.61,6.99,2.55,10.45.41,1.52,1.68,2.27,3.12,2.72,7.9,2.47,15.95,4.06,24.27,3.91.95-.02,1.91,0,2.96,0-.15,1-.86.94-1.42,1.02-5.29.8-10.6,1.5-15.88,2.4-3.14.53-6.24,1.35-9.36,2.05-2.65.59-4.11,2.33-4.67,4.89-1.24,5.63-2.18,11.3-2.06,17.1.03,1.28-.03,2.56.01,3.84.05,1.62-.37,3.11-.79,4.66-.61,2.28-.92,4.7-.95,7.07-.1,6.79.01,13.58.04,20.37,0,1.34,0,2.68,0,4.61,1.31-.85,2.15-1.36,2.96-1.93,1.57-1.09,3.07-2.31,4.71-3.31,2.95-1.79,6.03-3.16,9.5-3.82,4.15-.79,8.18-2.15,12.32-3.03,3.35-.71,6.81-.96,10.17-1.61,4.36-.85,8.22-2.6,11.76-5.53,4.14-3.43,8.09-7,11.79-10.89.77-.8,1.69-1.47,2.56-2.16,2.19-1.74,4.43-3.42,6.59-5.2,1.91-1.57,4.03-2.57,6.52-2.72.08,0,.16,0,.24-.02,9.49-1.22,7.36-.3,13.87-5.44,1.07-.84,2.17-1.63,3.3-2.4,1.28-.87,1.76-2.04,1.39-3.52-.77-3.1-1.48-6.21-2.38-9.27-.69-2.38-2.36-4.14-4.21-5.71-3.1-2.63-5.6-5.75-7.1-9.53-.81-2.05-1.21-4.28-1.67-6.45-.75-3.51-1.4-7.05-2.1-10.57-.41-2.11-.83-4.22-1.24-6.33-.05-.24-.04-.49-.13-.71-2.44-5.86-1.95-12.21-3-18.3-.57-3.3.12-6.83.36-10.25.15-2.15.54-4.28.83-6.42q.17-1.26,1.48-2.26c1.64,1.3,1.32,4,3.58,5.02,1.3-1.36,2.05-3.09,2.76-4.82.37-.91-.06-1.69-.92-1.91-3.81-.97-3.88-4.27-4.46-7.17-.22-1.09-.19-2.15-.93-3.12-1.06-1.39-.48-2.9-.02-4.35,2.77-8.67,5.55-17.35,8.31-26.03,1.55-4.87,3.09-9.75,4.59-14.64,1.98-6.48,5.69-11.95,9.94-17.09,2.31-2.79,5.45-4.45,8.84-5.53,3.09-.98,5.82-2.48,8.41-4.46,1.88-1.44,4.1-2.46,6.24-3.51,2.93-1.45,5.97-2.68,8.9-4.14,4.08-2.03,8.17-4.05,12.11-6.32,3.18-1.83,6.15-4.01,9.21-6.05,1.26-.84,2.48-1.76,3.77-2.55.98-.6,2.13-1.01,3.11-.09.99.92.64,2.04.11,3.09-.29.57-.59,1.14-.91,1.69-2.24,3.8-4.1,7.76-5.46,11.97-.4,1.25-1.31,2.33-2,3.48-.93,1.57-2.07,3.06-2.77,4.72-2.85,6.69-5.54,13.44-8.35,20.15-.55,1.31-1.19,2.66-2.08,3.75-2.61,3.19-6.45,2.98-8.53-.54-1.63-2.77-2.16-2.83-4.42-.75-.35.32-.73.64-1.14.86-1.48.78-2.76-.01-2.75-1.67.02-3.73,2.41-6.13,6.15-6.21,2.23-.05,2.28-.07,3.02-2.25.67-1.97,1.36-3.93,1.94-5.92.15-.53.08-1.57-.17-1.66-.58-.22-1.39-.19-1.99.05-.8.32-1.42,1.18-2.22,1.35-1.46.31-2.99.4-4.49.39-2.24-.02-4.47-.24-6.71-.29-.59-.01-1.52.13-1.72.5-1.26,2.39-3.5,4.5-2.27,7.68.55,1.41.08,2.81-.41,4.2-.88,2.47-1.74,4.96-2.41,7.49-.53,2-1.52,3.66-2.85,5.2-1.51,1.75-3,3.54-3.73,6,3.6,1.74,7.14,2.71,11,.88,3.51-1.66,7.24-2.63,11.1-2.73,2.61-.07,5.24.34,7.85.59.97.09,1.75.73,1.67,1.71-.06.69-.53,1.47-1.06,1.95-.57.51-1.4.76-2.14,1.04-5.82,2.23-11.68,4.36-17.46,6.68-5.19,2.07-10.31,4.32-15.44,6.54-.62.27-1.1.83-1.99,1.53,2.71,1.29,4.56,2.96,4.73,5.75,1.44.49,2.27-.34,3.08-1.09,2.29-2.12,4.6-4.21,6.79-6.43,1.89-1.92,3.97-3.02,6.77-2.99,1.62.02,3.26-.65,4.87-1.06,1.7-.43,3.37-1.04,5.09-1.36,3.42-.63,5.92.63,7.87,3.84-1.02,1.34-2.43,1.24-3.84.93-.77-.17-1.49-.56-2.25-.82-2.35-.81-4.63-.5-6.67.8-.88.56-1.84,1.51-2.09,2.47-1.19,4.56-3.98,7.95-7.45,10.91-.6.51-1.24,1.07-1.61,1.74-.32.58-.34,1.35-.38,2.04-.04.71.23,1.48.03,2.12-.51,1.67-.49,3.23,0,4.93.22.75-.19,1.96-.73,2.6-1.18,1.38-2.58,2.61-4,3.75-2.8,2.25-5.67,4.4-8.51,6.61-1.45,1.13-1.9,2.72-1.9,4.46,0,2.88.05,5.76.06,8.64,0,.46-.09.91-.15,1.51-1.15-.44-1.19-1.34-1.31-2.17-.2-1.34-.32-2.7-.54-4.04-.09-.53-.26-1.11-.58-1.52-.25-.31-.85-.58-1.21-.5-.37.08-.8.57-.92.96-.15.51-.1,1.12,0,1.65.28,1.41.62,2.8.97,4.2.25,1.01.8,2,.78,3-.04,2.48,1.06,4.43,2.37,6.37,1.74,2.58,3.21,5.34,5.65,7.4.56.47.84,1.33,1.12,2.07.64,1.69,1.72,2.51,3.62,2.51,3.07,0,3.88.72,4.56,3.77.26,1.18.64,2.17,1.96,2.4,1.36.24,2.02-.7,2.64-1.67,1.81-2.87,2.12-5.99,1.48-9.24-.31-1.55-.8-1.91-2.46-2.1-.71-.08-1.44-.09-2.14-.24-2.16-.46-2.93-1.59-2.65-3.79.18-1.41.71-2.64,1.91-3.46.98-.68,1.98-1.37,3.07-1.85,1.25-.55,1.88-1.38,1.95-2.73.08-1.52.3-3.03.36-4.54.1-2.4.08-4.8,1.15-7.04.19-.4.08-.94.16-1.41.24-1.41.4-2.85.8-4.21.57-1.91,1.29-3.78,2.03-5.63.32-.81.77-1.6,1.3-2.28,1.24-1.58,2.72-1.59,4.02-.07.47.54.86,1.16,1.23,1.77,1.86,3.08,3.8,6.11,5.51,9.28.65,1.21.8,2.71,1.1,4.1.14.67.28,1.43,1.04,1.32.45-.07,1.08-.75,1.16-1.23.31-1.97.5-3.97.62-5.96.1-1.62.52-2.93,2.13-3.71,1.15-.56,1.73-1.68,1.79-2.94.11-2.21.83-3.82,3.25-4.38.78-.18,1.41-1,2.12-1.52,2.01-1.48,3.94-.76,4.09,1.69.13,2.13.04,4.33-.31,6.44-.51,3.05-1.86,3.72-4.74,2.74-.3-.1-.59-.2-.88-.3-1.21.55-1.21,1.66-1.3,2.67-.29,3.51-.54,7.02-.77,10.53-.17,2.55-.26,5.11-.45,7.66-.05.67-.31,1.32-.53,2.24-.92-.37-1.57-.63-2.21-.88-1.39-.54-1.85-.35-2.31,1.07-.19.6-.28,1.25-.33,1.88-.16,1.99-.29,3.99-.4,5.98-.03.56-.09,1.16.09,1.67,1.57,4.37.45,9.07,1.7,13.47.16.56-.16,1.24-.21,1.87-.09,1.11-.42,2.3-.15,3.31.43,1.56.14,3-.11,4.48-.6,3.63-1.27,7.24-1.79,10.88-.2,1.4-.72,2.16-2.18,2.35-.85.11-1.69.47-2.47.85-1.89.93-3.73.79-5.5-.22-1.73-.99-3.44-2.04-5.11-3.13-1.53-.99-3.18-1.48-4.99-1.43-2.99.1-5.87-.25-8.61-1.65-.91-.47-2.13-.35-3.65-.56.44.82.55,1.28.84,1.53,1.45,1.25,2.99,2.4,4.43,3.67.83.73,1.64.97,2.6.38,1.64-1,3.18-.69,4.75.2,1.6.9,3.28,1.65,4.86,2.58,2.85,1.68,5.96,2.31,9.2,2.25,2.38-.04,4.6.33,6.68,1.51.76.43,1.64.64,2.43,1.01,1.65.77,3.23.59,4.86-.13,4.02-1.78,8.1-3.43,12.09-5.27,5.76-2.65,11.71-4.7,17.87-6.16,6.72-1.58,13.14-3.96,19.37-6.94,4.33-2.07,8.75-3.87,13.55-4.66,2.55-.41,4.79-1.71,6.9-3.22,1.03-.74,2.12-1.44,3.27-1.98,1.7-.8,2.68-.61,3.71.46,1.11,1.16,1.47,3.1.73,4.44-1.31,2.37-2.65,4.73-4.04,7.06-.36.6-.87,1.17-1.43,1.59-4.44,3.35-8.12,7.45-11.78,11.59-1.38,1.56-2.76,3.11-4.17,4.64-1.17,1.26-2.57,2.05-4.31,2.41-1.04.21-2.01.88-2.94,1.46-.95.58-1.76,1.4-2.74,1.93-1.19.65-2.51.71-3.6-.23-1.06-.91-1.44-2.16-.86-3.47.48-1.08,1.06-2.15,1.78-3.07.93-1.2,2.04-2.25,3.06-3.36,1.08-1.18.98-2.19-.48-2.75-1.01-.38-2.16-.44-3.26-.49-.78-.03-1.58.26-2.37.31-2.29.12-3.2-.35-4.07-2.52-.57-1.42-1.52-1.94-2.93-1.98-3.93-.11-7.63.64-10.98,2.79-.87.56-1.68,1.26-2.62,1.68-3.71,1.67-6.08,4.87-8.82,7.64-.72.73-.89,1.59-.65,2.64.52,2.26-.15,3.2-2.45,3.68-.94.19-1.89.31-2.84.44-1.21.16-1.91.88-2.6,1.87-1.36,1.95-1.92,4.1-2.27,6.38-.31,2.04,1.25,5.33,3.15,6.28,3,1.5,5.99,2.87,9.42,3.37,2.64.39,5.16,1.61,7.74,2.46.08.02.14.07.21.11,2.94,1.49,5.01,4.89,4.59,7.54-.53,3.36-3.21,6.09-6.78,6.51-1.62.19-3.34-.01-4.97-.32-7.88-1.48-14.85-5.26-21.91-8.81-.5-.25-.98-.64-1.51-.71-.57-.08-1.38-.06-1.72.28-.59.59,0,1.19.51,1.58,3.08,2.28,5.91,5.08,9.31,6.7,9.78,4.66,18.74,10.68,28.03,16.16,2.48,1.46,4.93,2.97,7.4,4.44,2.39,1.41,4.32,3.21,5.65,5.72.54,1.01,1.53,1.8,2.39,2.61.52.49,1.19.8,1.78,1.21.67.47,1.05,1.19.54,1.84-.37.48-1.19.95-1.74.88-3.08-.36-6.18-.71-9.2-1.41-1.75-.4-3.47-1.25-4.99-2.23-13.7-8.84-27.43-17.65-40.57-27.33-.39-.28-.77-.59-1.19-.8-1.3-.64-2.28-.43-3.14.75-1.48,2.05-2.24,4.31-1.17,6.76,2.01,4.61,4.02,9.24,6.29,13.73.72,1.42,2.2,2.48,3.41,3.62,1.96,1.87,4,3.65,5.97,5.5,1.11,1.04,2.12,2.18,3.22,3.22.75.71,1.15,1.5,1.01,2.55-.23,1.68-1.34,2.4-2.87,1.71-1.16-.53-2.22-1.26-3.34-1.88-3.54-1.98-7.09-3.96-10.94-6.1-.37,1.16-.81,1.95-.85,2.76-.11,2.53-1.4,4.37-3.24,5.91-1.34,1.12-2.74,2.18-4.13,3.28.8,2.2,2.03,3.9,3.95,5.07.75.46,1.45.99,2.19,1.47,1.79,1.15,2.86,2.73,3.1,4.88.41,3.62,2.13,6.48,5.13,8.57.46.32.88.7,1.24,1.12.78.92,1.12,1.99.53,3.11-.58,1.11-1.64,1.55-2.83,1.37-.94-.14-1.88-.4-2.74-.8-1.15-.54-2.27-1.19-3.31-1.92-1.4-.98-2.9-1.45-4.53-.99-3.36.95-6.39.04-9.15-1.7-4.05-2.56-7.98-5.33-11.92-8.06-.71-.49-1.19-1.29-1.84-1.87-1.05-.96-2.16-1.86-3.24-2.78-.42-.36-.83-.71-1.24-1.08-.59-.53-1.13-1.14-1.77-1.6-2.21-1.57-4.44-3.11-6.69-4.63-1.95-1.32-2.89-1.26-4.7.26-1.98,1.67-3.26,3.78-3.48,6.36-.49,5.97-.9,11.95-1.28,17.92-.37,5.92-1.8,11.5-4.91,16.6-.91,1.5-1.82,3.01-2.79,4.48-.44.65-.97,1.3-1.6,1.75-1.03.73-2.26.38-2.83-.73-.28-.56-.45-1.2-.52-1.83-.49-4.69-.99-9.37-1.37-14.07-.27-3.34-.36-6.69-.57-10.04-.05-.76-.22-1.52-.39-2.67-1.88,2.51-1.7,5.65-4.25,7.55-.76-.74-1.47-1.44-2.38-2.33-2.81,1.23-5.87,2.26-8.64-.99-.51.79-.93,1.35-1.26,1.95-.8,1.48-1.49,3.01-2.33,4.46-2.25,3.93-7.32,4.67-10.63,1.58-1.89-1.77-1.97-1.78-3.8,0-1.38,1.33-2.74,2.69-4.11,4.04-1.41,1.4-3.06,2.2-5.08,2.4-2.97.29-3.07.47-3.69,3.41-.07.31-.13.63-.22.93-.73,2.65-2.37,3.12-4.35,1.27-1.9-1.78-2.12-2.84-1.1-5.33.09-.22.23-.43.3-.65.34-1.18-.08-1.98-1.14-2.21-1.07-.23-1.85.26-2.01,1.48-.23,1.74-.26,3.51-.45,5.26-.1.95-.23,1.92-.55,2.81-1.66,4.55-6.53,5.6-10.01,2.2-.44-.44-.91-.84-1.39-1.28-.27.2-.58.3-.63.48-.71,2.48-2.38,4.28-4.14,6.06-2.26,2.29-4.26,4.68-4.83,8.08-.24,1.41-1.28,2.74-2.14,3.96-3.45,4.9-6.99,9.74-10.46,14.64-.5.7-.88,1.53-1.13,2.36-.45,1.51-1.39,2.47-2.82,3.03-1.63.64-3.24,1.29-5.01,2-.63-.87-1.22-1.6-1.72-2.39-1.81-2.92-3.61-5.85-5.36-8.81-1.29-2.17-3.08-3.42-5.66-3.36-1.74.04-2.69-.82-3.45-2.39-1.38-2.85-1.73-5.76-1.34-8.86.4-3.24.35-6.57,1.06-9.74.87-3.88,2.2-7.67,3.57-11.42.65-1.76,1.76-3.4,2.86-4.95,1.36-1.92,1.81-4.09,1.99-6.32.64-7.63,3.22-14.69,6.67-21.37,3.78-7.31,8.1-14.33,12.24-21.45,1.69-2.91,4.22-4.74,7.56-5.41,1.96-.39,3.91-.83,5.85-1.29,3.21-.77,3.87-1.49,3.93-4.73.17-9.99.28-19.99.43-29.98.04-2.72.28-5.43.24-8.15-.05-3.83-.27-7.66-.44-11.49-.06-1.28-.24-2.55-.3-3.82-.17-3.54-1.51-6.49-4.27-8.78-.54-.45-1.17-.93-1.47-1.53-.99-1.97-2.7-2.72-4.7-2.78-3.11-.1-5.97-.85-8.68-2.4-.85-.49-1.99-.6-3.01-.64-3.19-.12-6.39-.11-9.59-.19-1.26-.03-2.6-.02-3.13-1.93.96-.28,1.81-.66,2.71-.78,6.02-.81,12.05-1.56,18.07-2.34,3.49-.46,6.94-.99,10.08-2.82,1.84-1.08,3.17-2.46,3.59-4.54.53-2.65,1.14-5.32,1.36-8,.22-2.67.65-5.2,1.93-7.59.63-1.18.95-2.54,1.42-3.81.16-.41.37-.8.82-1.74ZM164.45,337.42c3.39-2.74,6.81-1.89,10.21-.37.49-3.9-1.39-7.05-4.47-7.91-1.11-.31-2.15-.19-2.77.77-1.45,2.24-2.59,4.65-2.97,7.5ZM280.4,198.48c-.19-.81-.17-1.35-.42-1.64-1.25-1.43-2.47-2.91-3.89-4.17-1.34-1.19-2.37-1.24-2.95-.56-.56.66-.27,1.72.84,2.95,1.61,1.78,3.77,2.57,6.42,3.42ZM244.35,309.08c.5-.15.74-.16.77-.24,1.02-3.01,2.09-6,2.99-9.05.31-1.07.13-2.23-1.21-2.95-2.03,3.85-2.13,7.98-2.55,12.23ZM276.24,112.93c-1.64-.38-3.07-.79-4.53-1.01-.99-.15-1.63.53-1.87,1.46-.24.92.28,1.48,1.02,1.92,1.97,1.16,3.85.46,5.39-2.37Z"/>
  <path class="cls-1" d="M536.91,223.16c-.89.46-1.77.94-2.68,1.36-.7.32-1.46.97-2.19.22-.76-.79-.25-1.66.19-2.41.32-.54.75-1.03,1.17-1.51,2.1-2.4,4.18-4.83,6.35-7.17.56-.61,1.38-1.1,2.18-1.35,2.11-.66,3.64-1.96,4.67-3.87.72-1.33,1.43-2.68,2.1-4.04.79-1.62.78-2.04-.55-3.09-1.39-1.1-1.83-2.33-1.2-3.99.14-.36.12-.79.17-1.18.36-2.63.79-3.05,3.48-3.14,1.23-.04,2.19-.54,2.88-1.48,1.32-1.8,2.56-3.66,3.83-5.5.49-.72.88-1.54,1.47-2.17.95-1.02,2.19-1.31,3.52-.81,1.24.46,2.01,1.46,2.03,2.72.02,1.25-.28,2.51-.54,3.74-.31,1.45-.74,2.87-1.18,4.56,1.17,0,1.97.08,2.74-.01,4.28-.51,8.25.61,12.1,2.29,5.05,2.21,9.64,5.04,12.63,9.9,1.34,2.18,1.52,3.2.77,5.82-3.03-1.38-4.76-4.62-8.23-5.79.5,2.87.4,5.53,2.35,7.68.74.81.36,1.75-.74,1.99-3.51.77-7.02,1.53-10.57,2.11-.95.16-2.06-.19-2.99-.58-1.34-.56-2.35-.28-3.16.81-1.13,1.54-2.15,3.18-3.33,4.68-1.02,1.31-2.08,2.62-3.32,3.71-5.25,4.6-11.01,8.49-17.18,11.76-1.27.67-2.58,1.28-3.94,1.74-2.77.93-4.52.32-6.28-2.01-1.44-1.9-1.63-1.95-3.63-.57-1.51,1.04-3.01,2.12-4.48,3.22-.53.4-.95.94-1.41,1.42.08.16.16.31.24.47.99-.09,1.99-.19,2.98-.27.72-.06,1.44-.14,2.15-.11.95.04,1.68.49,2.03,1.42.37.99-.06,1.72-.8,2.31-.87.7-1.74,1.42-2.67,2.03-5.56,3.64-10.73,7.76-15.9,11.94-7.64,6.18-15.63,11.92-23.56,17.75-4.23,3.11-9.07,4.68-14.35,4.67-4.2,0-8.02,1.05-11.48,3.52-1.38.99-2.91,2.04-4.95,1.46-.54-1.29.19-2.2,1.03-2.89,2.71-2.23,5.41-4.49,8.27-6.51,1.98-1.4,3.9-2.73,5.23-4.82.63-.98,1.56-1.84,2.52-2.53,3.71-2.65,7.47-5.21,11.23-7.78.85-.58,1.84-1.01,2.07-2.54-.9-.11-1.8-.25-2.69-.31-1.51-.11-3.04-.09-4.54-.26-2.2-.26-4.22-1.02-5.63-2.84-.7-.91-1.43-1.08-2.49-.71-1.61.55-3.14.17-4.6-.64-3.49-1.94-7.03-3.8-10.51-5.77-2.4-1.36-4.87-2.27-7.68-2.41-1.26-.06-2.61-.72-3.71-1.44-2.4-1.58-4.66-3.38-6.98-5.08-.58-.43-1.16-.85-1.76-1.25-.85-.57-1.77-.85-2.69-.26-.97.63-.91,1.62-.64,2.59.53,1.92,1.11,3.83,1.66,5.76.19.69.42,1.39.48,2.1.11,1.26-.55,2.15-1.64,2.69-1,.49-2.08.59-2.9-.26-.88-.91-1.63-1.94-2.37-2.97-.6-.84-.96-1.88-1.67-2.6-2.02-2.04-4.09-4.04-6.28-5.9-1.44-1.22-2.58-2.57-3.43-4.24-1.34-2.63-2.62-2.79-4.76-.68-1.65,1.63-3.19,3.39-4.95,4.88-1.19,1.01-2.63,1.79-4.06,2.45-1.47.68-2.97.6-4.16-.75-1.12-1.27-1.32-2.64-.58-4.2,1.64-3.45,2.96-7.03,5.47-10.07,1.32-1.6,1.97-3.82,2.69-5.85,1.7-4.77,5.18-7.99,9.17-10.74,1.45-1,2.32-2.12,2.31-3.89-.03-3.04,1.88-5.01,3.97-6.79.54-.46,1.47-.55,2.24-.65,2.27-.29,2.89-.99,2.68-3.29-.08-.87-.26-1.74-.35-2.61-.09-.82-.06-1.66.84-2.05.92-.4,1.71-.05,2.38.64.22.23.44.47.65.71,3.99,4.58,8.12,9.05,11.42,14.19.92,1.44,2.13,2.51,3.61,3.41,1.7,1.02,3.34,2.22,4.81,3.55,3.57,3.24,7.43,6.05,11.49,8.62,2.09,1.32,4.08,2.79,6.25,4.29.23-.16.61-.32.82-.61.94-1.24,2.15-1.22,3.46-.84.84.24,1.67.55,2.52.76,1.05.26,1.69-.21,1.92-1.25.35-1.58.06-2.99-1.06-4.22-2.36-2.58-5.02-4.61-8.54-5.46-1.67-.41-3.3-1.21-4.79-2.1-1.69-1.02-1.83-1.78-1.3-3.64.31-1.07.64-2.12,1.03-3.43,1.07.28,2.08.45,3.02.8,6.73,2.52,13.45,5.09,20.18,7.63,2.73,1.03,4.65,3.08,6.45,5.21,1.01,1.19,1.09,2.78,1.01,4.34-.3,6.15-.55,12.3-.85,18.44-.1,2.07-.33,4.14-.48,6.21-.19,2.49-1.16,4.3-3.91,4.64-.37.05-.71.31-1.09.49.4,1.92,1.8,2.2,3.28,2.18,2.8-.04,5.34-.92,7.58-2.61,4.41-3.31,8.88-6.55,13.2-9.97,6.48-5.14,13.35-9.62,20.86-13.1,1.47-.68,2.44-1.72,3.04-3.21.59-1.47,1.3-2.88,1.96-4.32-.14-.14-.27-.29-.41-.43ZM538.93,221.4c2.57.52,2.75.34,2.17-1.97-.8.73-1.49,1.35-2.17,1.97Z"/>
  <path class="cls-1" d="M424.89,90.86c.65-1.06,1.19-1.94,1.74-2.82.62-.99,1.42-1.78,2.63-1.88,1.51-.13,3.02-.16,4.54-.22,1.21-.05,2.18.41,2.89,1.4.33.45.61.95.98,1.36,1,1.12,1.78,1.27,2.84.18,1.27-1.3,2.44-2.75,3.44-4.28,1.25-1.91,2.65-3.42,4.8-4.48,1.63-.8,2.97-2.41,4.12-3.91,1.36-1.76,2.39-3.77,3.54-5.69,1.28-2.12,2.5-4.28,3.79-6.39,1.45-2.36,3.54-3.89,6.26-4.48,1.84-.4,3.16-1.39,4.08-3.05.42-.76.97-1.48,1.61-2.07,1.35-1.27,2.42-.95,3.02.79.18.53.25,1.11.53,1.58.62,1.04,1.73,1,2.22-.1.28-.64.45-1.4.42-2.09-.12-2.55-.17-5.12-.58-7.63-.5-3.02-.09-5.9.79-8.74.57-1.84,2.71-2.96,4.85-2.68.55.07,1.06.35,1.61.45,2.89.53,4.27,2.19,4.08,5.18-.04.61.17,1.27.4,1.85,1.2,3.02,1.62,6.17,1.55,9.4-.05,2.4-.15,4.8-.05,7.19.07,1.66.32,3.34.74,4.94.35,1.34.39,2.46-.54,3.58-1.55,1.88-1.54,3.96-.5,6.07.88,1.77,1.08,3.57.94,5.57-.43,6.21-.71,12.43-.95,18.66-.1,2.67-.48,5.25-1.68,7.66-.13.26-.4.45-.84.92-.4-.89-.76-1.57-1.01-2.29-1.51-4.41-2.51-8.92-2.55-13.61-.03-3.83-1.2-7.18-3.93-9.99-2.04-2.1-2.1-2.85-1.28-5.91-1.13-1.44-2.68-1.66-4.3-1.18-4.14,1.22-8.26,2.5-12.35,3.85-1.76.58-1.94,1.29-.99,2.89.95,1.59,2.24,2.6,4.18,2.84,2.33.3,3.64,1.64,3.86,3.61.2,1.74-.84,3.42-2.9,4.23-6.4,2.5-12.87,4.8-19.57,6.43-1.87.46-3.45-.25-5.22-1.29-1.48,2.02-2.85,4.14-4.49,6.03-1.6,1.85-3.47,3.47-5.32,5.28.55.79.93,1.38,1.35,1.93,1.25,1.67,1.54,3.5.84,5.44-.38,1.05-.81,2.1-1.4,3.04-2.79,4.51-4.86,9.35-6.89,14.22-.58,1.4-1.16,2.83-2,4.08-.59.87-1.51,1.72-2.47,2.11-2.8,1.14-4.65-.06-4.53-3.07.09-2.45.64-4.89,1.11-7.31.35-1.8.91-3.56,1.32-5.34.14-.61.26-1.31.1-1.89-.56-2.11.05-3.93,1.12-5.7.54-.89,1.03-1.81,1.48-2.74,1.75-3.62,4.26-6.54,7.79-8.54.35-.2.68-.42.99-.67,1.24-1.01,1.46-2.07.4-3.29-.76-.88-1.76-1.61-2.77-2.2-1.55-.91-3.21-1.63-5-2.53-.4.66-.88,1.68-1.58,2.51-.4.47-1.16.86-1.74.85-.31,0-.78-.93-.87-1.48-.27-1.86-.4-3.75-.64-6.2-.65.86-1.02,1.23-1.25,1.67-.33.63-.47,1.37-.84,1.97-1.87,3.08-5.81,3.41-8.06.6-.77-.96-1.18-2.24-1.66-3.41-.58-1.39-1.1-2.8-1.56-4.23-.51-1.58-1.17-3.16-1.34-4.78-.56-5.54-2.05-10.66-5.86-14.89-.16-.18-.32-.36-.46-.55-.91-1.26-1.01-2.71-.25-3.53.66-.71,2.11-.74,3.31.05,3.53,2.32,7.34,4.27,9.94,7.8.45.61,1.21,1.05,1.92,1.38,1.82.86,2.94.49,4.07-1.22.22-.33.41-.69.6-1.04q1.87-3.41-1.01-5.87c-.6-.52-1.19-1.1-1.61-1.76-1.19-1.88-2.28-3.82-3.6-6.06,2.58-.87,5.01-1.84,7.52-2.47,2.22-.56,4.45-.14,6.52.89,1.29.64,2.59,1.25,3.86,1.92,1.68.88,3.28.81,4.64-.53,1.59-1.56,3.26-3.1,4.57-4.88,2.06-2.8,4.37-5.33,7.2-7.31,3.14-2.2,6.39-4.25,9.6-6.35.23-.15.54-.19,1.34-.46-.58.77-.79,1.14-1.09,1.43-1.03,1-2.06,2.01-3.14,2.96-2.01,1.76-3.51,3.8-4.62,6.3-1.02,2.31-2.57,4.41-4.04,6.49-2.08,2.93-4.33,5.75-6.47,8.64-.65.88-1.18,1.87-1.94,3.09.95.12,1.61.21,2.28.28,2.43.28,3.55,1.94,2.66,4.23-.39,1.01-1.07,1.97-1.82,2.76-2.73,2.86-6,5-9.45,6.91-1.52.84-3,1.85-4.28,3.02-2.51,2.29-2.42,3.81.3,6.59Z"/>
  <path class="cls-1" d="M461.52,149.14c1.35-4.65,2.63-9.06,3.99-13.75-.8-.09-1.48-.17-2.15-.25-2.03-.24-3.09-1.41-2.77-3.4.46-2.86,2.09-5.19,3.98-7.25,1.17-1.28,3.14-.42,3.35,1.34.13,1.07.02,2.17.02,3.66,2.06-1.12,2.77-2.59,2.77-4.29,0-1.49-.31-3.01-.69-4.46-.42-1.61-.45-3.11.21-4.67.62-1.47,1.05-3.02,1.59-4.52.22-.6.45-1.21.81-1.72.84-1.19,2.08-1.08,2.52.28.31.96.28,2.04.41,3.06.1.83.21,1.65.31,2.43,1.48.14,1.71-.81,2.06-1.58.56-1.24.95-2.57,1.65-3.72.41-.67,1.23-1.38,1.95-1.49.97-.14,1.51.85,1.68,1.73.28,1.4.54,2.84.52,4.25-.06,5.19-.45,10.39-.31,15.58.19,7.11.79,14.2,1.14,21.31.08,1.66-.13,3.33-.16,5-.04,2-.07,3.99-.01,5.99.09,3.35.26,6.71.4,10.06.02.48-.01.98.13,1.42.33,1.04.69,2.14,2.41.98-.21.97-.41,1.57-.46,2.18-.16,1.73-.31,3.47-.37,5.21-.15,4.79-.23,9.58-.39,14.37-.08,2.47-.27,4.93-.39,7.4-.06,1.12.06,2.26-.15,3.35-.34,1.77-1.82,2.59-3.42,1.79-4.13-2.07-7.84-4.61-9.69-9.17-1.05-2.58-2.38-5.06-3.63-7.56-.3-.6-.78-1.12-1.41-2.01-.44,1-.68,1.62-.98,2.22-.82,1.66-2.25,1.8-3.32.27-.45-.64-.77-1.4-1.04-2.15-1.57-4.38-3.63-8.52-6.16-12.43-1.48-2.28-1.73-4.94-1.95-7.57-.15-1.75-.37-3.5-.4-5.25-.07-3.66-.17-7.34.02-10.99.08-1.45.78-2.92,1.41-4.29.96-2.08,2.05-2.52,4.27-2,.61.14,1.21.34,2.23.62ZM465.17,186.08c-.99-2.14-.89-4.38-3.06-5.43-1.04.78-1.76,1.58-.89,2.67.92,1.15,2.09,2.06,3.95,2.75Z"/>
  <path class="cls-1" d="M523.25,206.68c-.24-1.15.63-1.58,1.28-2.07,2.63-1.96,5.3-3.86,7.92-5.83.94-.71,1.8-1.53,2.89-2.47-1-1.09-1.76-2.12-2.72-2.91-2.77-2.27-2.51-5.2-1.28-7.84,1.81-3.87,2.94-7.93,4.18-11.97.25-.83.44-1.74.37-2.59-.65-8.28-1.14-16.61-3.1-24.71-1.56-6.44-3.41-12.8-5.31-19.15-.46-1.54-1.66-2.85-2.48-4.3-.5-.88-1.26-1.81-1.27-2.72-.05-2.96-1.28-5.4-2.85-7.75-.53-.79-1.04-1.58-1.68-2.55,2.25-.87,4.32-.69,6.35.03,5.66,2.01,11.42,3.59,17.33,4.68,2.09.38,3.9,1.3,5.47,2.79,1.03.98,2.2,1.84,3.38,2.64,2.31,1.58,4.65,3.11,7.02,4.6,1.99,1.26,2.64,1,3.14-1.25.82-3.66,1.59-7.34,2.31-11.02.38-1.91-.26-2.64-2.22-2.78-.4-.03-.8-.03-1.2,0-.64.03-1.27.1-2.01.16-.5,1.15-.9,2.38-1.54,3.45-.79,1.33-2.44,1.36-3.14.16-.73-1.23-.18-3.46,1.05-4.25.07-.04.14-.07.21-.12,1.95-1.17,2.3-2.24,1.33-4.23-.17-.36-.45-.67-.63-1.02-.73-1.41-.53-1.96.91-2.61q2.25-1.02,2.15-3.42c-.12-2.79.97-3.93,3.79-4.04,2.14-.08,3.88.78,5.47,2.07,1.42,1.15,2.9,1.56,4.87.47-.71-1.39-1.37-2.7-2.22-4.37,3.49.2,6.41,1.02,8.78,3.17,1.4,1.27,1.14,2.23-.65,2.92-1.13.44-1.94,1.07-2.24,2.27-.08.31-.15.66-.35.88-2.07,2.36-2.15,5.2-2.17,8.13-.07,8.57-.85,17.07-2.53,25.48-.43,2.13-.57,4.27,1.55,6.34.24-1.61.44-2.89.62-4.17.96-7.04,1.76-14.12,3.86-20.95.63-2.05,1.49-4.04,2.3-6.03.26-.65.72-1.21,1.26-2.08.32.61.64.96.68,1.35.17,1.34.44,2.71.33,4.05-.51,6.45-.87,12.92-1.79,19.32-1.15,8.06-2.71,16.06-4.25,24.06-.81,4.21-2.43,8.19-4.22,12.13.42-7.12,1.87-14.17,1.08-21.49-.97,0-1.74-.04-2.51,0-2.27.14-4.33-.47-5.98-1.99-1.41-1.29-2.68-2.74-3.88-4.22-.98-1.21-1.38-2.68-1.32-4.27.07-1.68.1-3.36.16-5.03.03-.82.02-1.59-.87-2.05-2.76-1.44-5.51-2.91-8.27-4.35-.11-.06-.3.02-.59.05-.57,3.33-.81,6.57,1.45,9.56,1.04,1.37,1.75,2.99,2.25,4.81-.42-.37-.94-.68-1.23-1.13-.9-1.4-1.84-2.8-2.54-4.31-1.26-2.72-1.22-2.77-4.02-1.98-1.79.5-3.28.18-4.2-1.39-1.91-3.29-4.18-6.49-4.18-10.55,0-1.2-.5-2.16-1.42-2.91-1.05-.86-2.08-1.76-3.14-2.6-.98-.77-2.08-1.15-3.35-.82-.86,1.3-.3,2.68-.3,4,.01,2.94.88,5.62,2.35,8.19,2.66,4.65,5.15,9.39,7.74,14.07,4.06,7.31,5.98,15.28,7.27,23.45.82,5.19.49,10.37-.12,15.54-.44,3.72-1.87,7.09-4.11,10.11-.66.9-1.3,1.81-1.92,2.67.33.73.85,1.36.82,1.96-.03.53-.61,1.08-1.06,1.52-4.37,4.28-9.33,7.76-14.75,10.59-.49.26-1.03.43-1.56.6-.2.06-.44.01-.74.01Z"/>
  <path class="cls-1" d="M518.69,194.7c.69-1.84,1.51-3.64,2.05-5.51.76-2.6,1.27-5.28,1.99-7.89.28-1.03.81-1.99,1.32-3.19,1.17,1.16,1.32,2.25,1.2,3.36-.27,2.38-.53,4.76-.97,7.12-.54,2.89-1.22,5.76-1.9,8.63-.78,3.31-2.27,6.33-4.21,9.08-.85,1.19-2.1,2.27-3.4,2.93-4.52,2.3-9.43,3.48-14.41,4.32-.31.05-.64-.01-.95-.07-.14-.02-.26-.15-.68-.4.68-.39,1.21-.78,1.8-.99,1.28-.45,2.61-.76,3.88-1.22.81-.3,1.78-.58,2.3-1.2,2.24-2.61,5.16-4.26,7.98-6.08,2.08-1.34,2.37-2.12,1.85-4.38-.01-.07-.1-.11-.31-.33-2.98,2.42-6.19,4.51-10.35,5.23.12-.64.16-1.08.28-1.51.44-1.54.1-2.9-1.06-3.94-1.66-1.49-1.63-3.15-.75-4.99.48-.99,1.12-1.98.2-3.41-.93,0-2.04-.07-3.13.02-1.19.1-1.83-.48-2.1-1.51-.27-1-.51-2.03-.59-3.05-.5-6.7-1.04-13.39-1.38-20.1-.41-8.06-.86-16.14-.88-24.21-.02-6.06.61-12.13.97-18.19.15-2.55.31-5.11.5-7.66.08-1.04.11-2.21,1.27-2.65,1.39-.53,2.84-1.02,4.31-1.17.53-.05,1.39.81,1.72,1.45,2.57,4.95,5.54,9.69,7.28,15.08,1.43,4.45,3.05,8.85,4.16,13.4.51,2.09.98,4.2,1.44,6.3.2.94.46,1.89.48,2.83.18,8.62,1.88,17.17,1.17,25.82-.49,5.96-.97,11.93-1.46,17.89.13.06.26.13.38.19Z"/>
  <path class="cls-1" d="M332.7,67.67c1.7.5,3.34.4,5,.11,1.16-.2,2.34-.28,3.51-.45.94-.13,1.92-.17,2.79-.48,1.03-.37,1.91-.34,2.61.47.71.81.59,1.78.17,2.7-.13.29-.3.57-.52.8-1.35,1.44-2.07,3.05-2.3,5.09-.16,1.37-.11,2.26,1.01,3.1.44.33,1.01,1.21.86,1.48-.3.54-1.01,1.07-1.62,1.16-1,.15-2.06-.06-3.09-.12-.55-.03-1.16-.22-1.65-.06-.45.15-1.03.63-1.09,1.04-.07.42.37.96.66,1.4.11.16.42.21.65.25,5.35.86,10.53,2.6,16.01,2.84,4.73.21,9.28,1.5,13.71,3.19,2.52.96,5.09,1.81,7.57,2.68,2.27-2.72,1.71-2.23,4.45-.73,4.46,2.44,4.36,6.38,3.88,9.91-.1.72-.63,1.48-1.17,2.01-1.59,1.55-3.35,1.02-3.96-1.13-.15-.53-.22-1.08-.38-1.88-.85-.04-1.7-.18-2.54-.11-7.25.57-14.09-.91-20.78-3.71-5.59-2.34-11.37-4.23-17.07-6.32-.22-.08-.47-.12-.69-.2-.91-.37-1.74-.38-2.27.6-.5.92-.17,1.96,1.07,2.52,2.47,1.12,5,2.09,7.51,3.11.96.39,1.96.69,2.9,1.11.78.36,1.23,1.01,1.12,1.93-.12,1.05-.83,1.54-1.78,1.64-.87.09-1.75.08-2.62.01-5.1-.4-10.19-.81-15.29-1.24-1.43-.12-2.63-.03-3.36,1.57-.27.59-1.2,1.07-1.91,1.25-3.05.8-7.15-1.32-6.85-4.99.18-2.22.08-4.53.64-6.65,1.36-5.08,2.93-10.11,4.6-15.1,2.48-7.42,5.1-14.79,7.69-22.18,1.16-3.32,2.37-6.62,3.61-9.9.65-1.71,1.35-2.17,2.79-2.11,1.47.07,2.33.78,2.22,2.23-.1,1.33-.51,2.65-.87,3.95-1.67,5.99-3.38,11.98-5.07,17.97-.11.38-.12.78-.18,1.24Z"/>
  <path class="cls-1" d="M460.2,205.42c-2.71,1.03-5.15,1.96-7.61,2.87-1.44.53-2.37.22-2.86-1.21-.64-1.88-2-3.07-3.51-4.11-6.83-4.71-10.17-11.67-12.5-19.29-.16-.52-.37-1.15-.22-1.62.61-1.98-.02-3.79-.59-5.62-.63-2.06-1.32-4.11-1.85-6.19-.33-1.3-.55-2.67-.57-4.01-.07-4.8-.17-9.6.03-14.39.11-2.52.57-5.1,1.31-7.51,1.88-6.12,4.17-12.06,7.85-17.4,1.71-2.49,2.95-5.3,4.41-7.96.38-.7.71-1.44,1.15-2.1.75-1.14,1.67-1.51,2.6-1.06,1.07.52,1.52,1.47,1.25,2.58-.29,1.15-.69,2.31-1.24,3.35-2.58,4.87-5.29,9.68-7.84,14.56-1.89,3.61-3.77,7.23-5.4,10.96-2.81,6.45-3.32,13.03-1,19.85,1.41,4.15,2.21,8.5,3.28,12.76.06.23.2.48.16.7-.46,3.03,1.37,4.73,3.56,6.25,1.88,1.31,3.73,2.67,5.93,4.25,0-.86.12-1.32-.02-1.68-.39-.96-.73-2-1.36-2.79-3.39-4.21-4.53-9.24-5.57-14.37-.99-4.86-.95-9.67-.22-14.54.13-.88.13-2.09-.37-2.69-1.03-1.25-.95-2.46-.63-3.81,1.5-6.43,3.86-12.51,7.26-18.17,1.4-2.33,2.83-4.64,4.41-6.86,1.62-2.27,2.55-4.76,2.99-7.49.28-1.73.61-3.46,1-5.17.45-1.99,1.76-3.18,3.72-3.65,2.91-.71,5.03,1.28,4.29,4.17-.49,1.92-1.22,3.8-2.03,5.62-2.27,5.11-4.59,10.2-6.98,15.26-1.2,2.54-1.72,5.07-1.15,7.89.57,2.84-.32,5.55-1.34,8.18-1.91,4.91-2.7,10.01-2.67,15.25,0,1.35.14,2.72.37,4.05,1.06,6.13,1.17,12.43,3.37,18.35.44,1.19.76,2.43,1.11,3.65.45,1.6,1.35,2.92,2.64,3.91,2.14,1.64,3.36,3.78,3.9,6.4.21,1,.63,1.95.93,2.84Z"/>
  <path class="cls-1" d="M406.3,210.58c-.92-1.44-1.06-2.65-1.06-3.97,0-1.08-.13-2.27-.61-3.21-1.8-3.58-1.8-7.21-.78-10.96,1.15-4.22,3.23-8,5.67-11.57,1.2-1.75,1.55-3.53,1.53-5.62-.06-4.79.07-9.58.26-14.37.1-2.57,1.25-4.72,3.08-6.57.82-.82,1.54-1.85,1.96-2.93.48-1.22,1.16-2.04,2.35-2.53.89-.36,1.72-.85,2.61-1.2,2.29-.89,3.49-.24,3.89,2.24.26,1.65.51,3.34.44,5.01-.29,6.86.71,13.53,2.62,20.11.56,1.91.87,3.9,1.38,5.83.54,2.08.15,4.01-1.02,5.72-2.33,3.43-4.77,6.79-7.17,10.17-.32.46-.76.85-1,1.34-1.95,3.96-5.28,6.54-8.84,8.9-1.72,1.15-3.42,2.33-5.3,3.61Z"/>
  <path class="cls-1" d="M388.6,170.28c-1.9-.44-3.34,1.6-5.41.49.37-.78.69-1.47,1.02-2.15,2.42-5.04,4.96-10.02,7.2-15.13.74-1.7.95-3.73,1-5.62.26-8.24,2.81-15.82,6.28-23.17.41-.87.75-1.78,1.26-2.58.82-1.27,1.64-2.57,2.67-3.65,1.8-1.9,4.14-2.33,6.1-1.35,1.97.99,3.44,3.48,3.03,5.79-.39,2.18-.93,4.4-1.8,6.43-3.66,8.48-6.46,17.17-7.39,26.42-.62,6.12-1.52,12.21-2.28,18.32-.25,1.98-1.24,3.43-2.98,4.36-6.67,3.57-13.68,6.19-21.18,7.37-1.4.22-2.87.14-4.3.08-1-.04-1.9-.47-2.22-1.53-.34-1.12.05-2.08.94-2.77.75-.58,1.56-1.12,2.41-1.55,4.55-2.34,9.13-4.62,13.67-6.95,1.05-.54,2.2-1.08,1.98-2.81Z"/>
  <path class="cls-1" d="M493.36,67.78c2.28,0,3.79.46,5.21,1.17,7.28,3.62,15.05,5.14,23.11,5.69,7.64.52,15.34.66,22.82,2.68,2.12.57,2.36.43,3.41-1.48.66-1.19,1.57-1.75,2.89-1.75.4,0,.8.04,1.2.02,1.94-.09,2.46-.68,2.18-2.54-.25-1.66-.54-3.31-.86-4.96-.58-2.94-2.13-5.38-4.3-7.32-4.65-4.16-9.4-8.2-14.16-12.22-1.09-.92-2.39-1.6-3.65-2.28-3.87-2.08-7.77-4.11-11.67-6.13-1.39-.72-2.42-1.72-3.32-3.01-.7-1-1.76-1.8-2.79-2.49-1.32-.88-2.82-1.5-4.17-2.34-.67-.41-1.3-.97-1.75-1.6-.76-1.06-.22-2.12,1.07-2.17.62-.03,1.27.11,1.87.29.53.16,1.04.43,1.5.73,9.98,6.49,20.03,12.89,29.89,19.55,3.49,2.36,6.61,5.28,9.77,8.1,2.77,2.47,5.67,4.82,9.19,5.95,4.72,1.52,9.69,9.87,8.7,15.25-.41,2.23-.21,4.61-.03,6.9.1,1.26-.05,2.22-1.09,2.92-1.07.71-2.17,1.47-3.54.8-.79-.39-1.5-.91-2.28-1.32-3.38-1.81-6.73-3.66-10.16-5.37-2.13-1.06-4.46-1.42-6.77-.72-3.9,1.18-7.86,1.31-11.87,1.08-7.66-.44-15.33-.95-22.8-2.82-3.31-.83-6.55-2.02-9.75-3.25-2.41-.92-4.47-2.5-6.11-4.51-.58-.71-.96-1.57-1.72-2.84Z"/>
  <path class="cls-1" d="M683.94,263.6c.91-1.39,2.28-1.22,3.51-1.38,6.34-.81,12.7-1.49,19.01-2.45,2.42-.37,4.78-1.25,7.1-2.1,2.16-.78,3.57-2.42,4.05-4.7.51-2.42,1.31-4.87,1.25-7.29-.1-4.5,1.89-8.14,3.99-12.33.23.87.41,1.33.46,1.8.47,4.37.78,8.76,1.4,13.1.36,2.51,1.16,4.97,1.84,7.43.55,1.99,1.86,3.43,3.84,3.96,4.01,1.07,8.02,2.19,12.1,2.87,3.85.65,7.79.76,11.69,1.11.51.05,1.02.11,1.58.54-.57.15-1.13.35-1.71.44-5.83.94-11.68,1.83-17.5,2.81-1.81.3-3.56.89-5.36,1.25-2.96.6-4.53,2.48-5.13,5.32-1.4,6.59-2.2,13.23-1.99,19.99.04,1.34-.13,2.71-.41,4.03-.31,1.45-1.27,2.1-2.54,2.04-1.29-.06-1.94-.71-2.07-2.44-.39-5.18-.81-10.36-1.01-15.55-.16-3.97-1.26-7.37-4.55-9.84-.38-.28-.77-.64-.97-1.05-1.01-2.06-2.73-2.66-4.89-2.81-2.71-.2-5.31-.87-7.78-2.18-1.27-.68-2.9-.83-4.39-.92-2.87-.18-5.75-.14-8.63-.2-1.12-.02-2.27,0-2.88-1.45Z"/>
  <path class="cls-1" d="M459.33,306.76c1.85.2,3.49-.28,4.88-1.26,4.8-3.38,10.28-5.44,15.44-8.11,6.94-3.6,13.81-7.41,19.86-12.48,2.27-1.9,4.78-3.04,7.86-3.06,1.46,0,2.9-.81,4.38-1.12,2.14-.45,3.77,1.19,3.15,3.16-.2.64-.7,1.3-1.24,1.7-1.09.79-2.25,1.55-3.5,2.05-4.4,1.76-8.44,4.18-12.45,6.67-4.34,2.7-8.83,5.18-13.14,7.93-2.07,1.32-3.89,3.03-5.83,4.56-1,.79-1.95,1.67-3.04,2.31-3.1,1.83-6.23,3.59-9.39,5.31-1.59.86-2.88,1.97-3.83,3.52-.59.95-1.23,1.88-1.95,2.73-2.33,2.74-5.24,4.13-8.91,3.56-.55-.09-1.12-.16-1.67-.15-1.43.04-2.16-.81-3.11-1.78-2.11-2.16-1.97-4.23-.77-6.7.9-1.85,1.93-3.45,3.76-4.51,1.66-.96,3.22-2.09,4.84-3.11,1.46-.91,3.02-1.45,4.68-1.2Z"/>
  <path class="cls-1" d="M647.38,255.77c-5.29.3-9.98-.04-14.3-2.67-1.97-1.2-4.06-2.25-6.2-3.13-5.21-2.14-9.49-5.57-13.41-9.5-2.09-2.09-4.14-4.23-6.02-6.51-1.76-2.12-3.79-3.88-6.05-5.41-1.87-1.26-2.03-1.16-3.6.4-2.94,2.93-5.96,5.77-8.97,8.63-.4.38-.88.69-1.33,1.03-1.78,1.36-3.56,1.9-5.75.65-1.02-.58-2.42-.49-3.75-.72.1-.19.19-.5.38-.7,3.22-3.32,6.44-6.65,9.7-9.95,2.86-2.89,5.85-5.67,8.6-8.66.97-1.06,1.85-.99,2.96-.74,1.13.25,2.07.88,1.98,2.06-.21,2.64,1.51,3.86,3.34,5.09.13.09.26.19.4.27,8.67,5.11,17.33,10.23,26.01,15.33,1.17.69,2.4,1.26,3.63,1.84,3.63,1.71,6.56,4.25,8.9,7.48,1.15,1.59,2.58,2.99,3.48,5.19Z"/>
  <path class="cls-1" d="M383.68,227.78c-1.8.95-3.3,1.66-4.72,2.51-1.93,1.16-3.95,1.71-6.18,1.19-1.52-.35-2.81.1-4.03,1.02-2.05,1.54-4.12,3.04-6.23,4.48-.81.55-1.78.89-2.73,1.36-.19-.51-.4-.78-.33-.93,1.28-2.92,2.43-5.92,4.71-8.26,1.95-2,3.91-4,5.89-5.98,1.7-1.71,3.65-2.84,6.18-2.63.39.03.84.02,1.18-.15,2.31-1.14,4.72-1.36,7.27-.79,1.98-5.81,6.09-9.8,10.33-13.71.99-.91,1.78-2.05,2.66-3.08.58-.68,1.16-1.36,2.44-.94,0,.84.18,1.8-.04,2.65-.42,1.62-.36,3.15.25,4.69,1.11,2.78.89,5.51-.64,8.06-1.77,2.94-3.57,5.88-5.52,8.69-1.84,2.66-4.32,4.71-7.13,6.32-1.64.94-2.21.67-2.72-1.15-.13-.46-.21-.93-.3-1.4-.09-.46-.17-.93-.35-1.94Z"/>
  <path class="cls-1" d="M433.83,273.78c0,1.84.03,3.67-.01,5.51-.02,1.19.26,2.12,1.32,2.87,1.47,1.04,1.52,2.17.08,3.19-.87.62-1.99,1.03-3.06,1.21-4.95.87-9.92,1.63-14.89,2.41-.55.09-1.12.14-1.67.11-1.63-.11-2.95-1.24-3.26-2.71-.3-1.43.28-2.82,1.8-3.56,1.57-.77,3.22-1.39,4.89-1.91,3.58-1.13,3.61-1.15,3.8-5,.27-5.42.58-10.84.88-16.27.04-.63.12-1.28.29-1.88.2-.71.62-1.48,1.46-1.25.47.13.97.79,1.12,1.31.29.99.4,2.04.49,3.07.1,1.12.58,1.77,1.75,1.87.47.04.94.19,1.4.32,2.34.7,3.5,2.04,3.61,4.47.1,2.07.02,4.15.02,6.23,0,0-.02,0-.03,0Z"/>
  <path class="cls-1" d="M399.05,101.28c-2.76.37-3.02.73-2.1,2.83.87,1.97,1.88,3.88,2.71,5.86.83,1.99.61,3.84-1.24,5.52-.51-.78-.96-1.41-1.35-2.08-1.8-3.11-3.57-6.23-5.36-9.35-.28-.48-.58-.96-.79-1.48-1.19-3.01-.25-4.77,2.88-5.46,3.08-.67,3.89-1.98,2.66-4.94-1.28-3.09-2.87-6.05-4.3-9.08-.37-.79-.73-1.61-.94-2.45-.24-1.01.01-2.09,1.06-2.36.58-.15,1.48.35,2.03.82.76.65,1.32,1.53,2.14,2.54.74-.69,1.27-1.23,1.85-1.72,1.35-1.14,2.46-.99,3.41.43,1.78,2.65,1.75,5.55-.17,8.15-.7.95-1,1.96-.9,3.13.25,2.78.38,5.56-.71,8.2,2.23,1.19,2.67,1.13,4.2-.45,1.27-1.31,1.97-1.47,3.57-.57,2.56,1.43,4.58,3.47,6.14,5.93,1.18,1.86.69,3.7-.34,5.42-.64,1.07-1.77,1.3-3.18.61-1.21-.59-2.34-1.36-3.48-2.1-1.54-.99-3.07-2.01-4.59-3.04-1.55-1.04-2.97-2.2-3.22-4.35Z"/>
  <path class="cls-1" d="M556.72,180.9c.44-.73.86-1.47,1.33-2.17,1.9-2.86,3.81-5.71,5.73-8.56.99-1.46,1.46-2.98.62-4.85-1,.44-1.22,1.42-1.78,2.1-.52.63-1.23,1.44-1.92,1.51-1.02.1-1.31-1.03-1.46-1.89-.29-1.64-.63-3.3-.68-4.96-.2-6.65-.65-13.23-3.4-19.43-.12-.28-.17-.6-.24-.9-.01-.06.06-.14.19-.44,1.48,1.9,2.91,3.7,4.29,5.54,1.22,1.62,1.2,1.64,3.14,1.19,2.35-.55,3.35-.07,4.51,2.01,1.04,1.87,2.23,3.66,3.21,5.57.46.89.73,1.95.8,2.95.13,1.91.06,3.83.04,5.74-.02,1.73-.63,3.28-1.66,4.66-1.85,2.5-3.71,5-5.62,7.46-1.75,2.25-4.01,3.83-6.66,4.82-.15-.11-.29-.23-.44-.34Z"/>
  <path class="cls-1" d="M355.83,307.76c.74.22,1.48.41,2.21.67,2.63.91,5.27,1.83,7.89,2.78,1.8.66,3.59,1.1,5.57,1.1,1.34,0,2.95.53,3.95,1.39,2.6,2.25,5.59,3.64,8.73,4.83,1.97.75,3.14,2.14,3.42,4.22.38,2.85-1.36,4.28-4.07,3.39-.3-.1-.6-.22-.88-.37-6.99-3.82-14-7.61-20.95-11.5-2.61-1.46-4.17-4-5.86-6.51Z"/>
  <path class="cls-1" d="M357.34,31.98c2.25-1.04,4.19-.28,6.09.46,8.27,3.2,16.51,6.48,24.79,9.66,3.89,1.5,7.65,3.21,11.15,5.5,1.26.83,2.68,1.41,4.04,2.08,1.98.98,2.71,2.55,1.98,4.26-.77,1.79-2.67,2.54-4.63,1.48-3.84-2.09-7.85-3.95-10.63-7.6-.84-1.1-2.14-1.91-3.36-2.65-5.61-3.45-11.76-5.74-17.89-8.07-3.13-1.19-6.2-2.55-9.28-3.88-.79-.34-1.51-.83-2.27-1.25Z"/>
  <path class="cls-1" d="M366.57,252.4c.63-.73,1.07-1.51,1.73-1.97,4.12-2.87,8.32-5.64,12.45-8.5,1.7-1.18,3.35-2.44,4.94-3.77,1.71-1.42,3.52-2.26,5.71-1.36,2.33.96,3.22,3.04,3.57,5.31.35,2.22-.89,3.17-2.98,2.23-3.2-1.44-5.69-.53-7.94,1.87-.87.93-1.83,1.78-2.83,2.57-1.28,1.02-2.78,1.65-4.42,1.61-2.27-.06-4.19.71-6.03,1.95-1.16.79-2.43,1.73-4.21.06Z"/>
  <path class="cls-1" d="M334.56,104.11c2.81.42,5.66.68,8.43,1.29,13.09,2.86,26.16,5.81,39.23,8.74,1.01.23,2.07.44,2.95.93.48.27.9,1.1.91,1.69.02.83-.76,1.2-1.55,1.1-1.82-.25-3.65-.44-5.42-.89-9.98-2.5-19.95-5.03-29.9-7.63-4.24-1.11-8.44-2.39-12.65-3.62-.73-.21-1.43-.54-2.14-.82.05-.26.09-.52.14-.78Z"/>
  <path class="cls-1" d="M718.97,338.71c-.29-1.71-.74-3.09-.73-4.48.05-7.02.2-14.04.38-21.05.03-1.09.3-2.22.71-3.23.22-.55.93-1.18,1.5-1.25.94-.13,1.65.57,1.9,1.49.19.68.29,1.42.25,2.12-.39,7.49-.82,14.97-1.23,22.46-.09,1.63-.76,2.88-2.78,3.94Z"/>
  <path class="cls-1" d="M495.33,190.93c-.14,1.29-.24,2.56-.42,3.82-.2,1.42.06,2.66.99,3.79,1.85,2.26,1.81,4.66.35,7.09-.61,1.02-1.22,2.06-1.94,3.01-.92,1.2-1.81,1.15-2.62-.12-.33-.52-.54-1.15-.68-1.76-.29-1.24-.5-2.5-.76-3.74-.37-1.79-.22-3.47.85-5.03.82-1.19.89-2.47.54-3.88-.34-1.38-.58-2.82-.62-4.24-.02-.9.23-1.91.69-2.69.28-.49,1.2-.92,1.76-.85.54.08,1.23.76,1.41,1.32.33,1.04.33,2.18.46,3.28Z"/>
  <path class="cls-1" d="M472.11,34.39c1.15-.51,2-.91,2.87-1.27,1.04-.44,2.03-.44,2.82.49.7.82.83,2.18-.04,3.09-1.31,1.36-2.74,2.69-4.34,3.67-4.05,2.48-6.34,1.18-6.42-3.55-.02-1.42.25-2.85.3-4.28.07-1.97,1.31-2.99,2.91-3.7,1.45-.65,2.57.2,2.36,1.78-.11.86-.47,1.68-.65,2.54-.06.28.09.6.2,1.24Z"/>
  <path class="cls-1" d="M424.95,306.74c.29.07,1.02.14,1.67.41,2.36.97,2.97,2.85,1.57,4.98-.61.93-1.36,1.76-2.09,2.61-1.09,1.26-2.18,2.54-3.34,3.73-1.09,1.12-1.67,1.11-2.44-.16-.73-1.21-1.44-2.51-1.8-3.87-1-3.8,2.08-7.64,6.43-7.7Z"/>
  <path class="cls-1" d="M410.61,153.91c-1.31,4.99-2.59,9.9-3.91,14.81-.12.44-.41.87-.71,1.23-.75.91-1.63.91-2.04-.15-.41-1.07-.74-2.3-.62-3.41.25-2.36.69-4.73,1.3-7.03.52-1.98,1.38-3.88,2.11-5.8.11-.29.29-.64.53-.77.66-.35,1.47-.95,2.03-.79.54.16.83,1.15,1.32,1.92Z"/>
  <path class="cls-1" d="M373.46,147.18c-.09,3.44-1.88,5.32-4.62,5.18-1.98-.1-3.29-1.18-3.9-2.98-.32-.95-.41-2.04-.33-3.04.21-2.66,1.71-4.15,3.98-4.16,2.3-.01,4.5,1.86,4.82,4.13.06.39.04.79.05.87Z"/>
  <path class="cls-1" d="M333.4,155.93c.9.38,1.74.54,2.32,1.01,1.54,1.26,2.43,2.98,2.64,4.95.22,2.09-1.55,3.88-4.02,4.26-2.24.34-4.29-.85-4.79-3-.5-2.13,0-4.17,1.45-5.81.59-.66,1.59-.95,2.41-1.41Z"/>
  <path class="cls-1" d="M308.41,106.2c.68,1.07,1.27,1.67,1.49,2.38.97,3.14,1.63,6.32.97,9.64-.17.85-.15,1.74-.32,2.59-.13.69-.28,1.43-.63,2.03-.83,1.44-2.38,1.38-3.19-.1-.26-.47-.42-1.05-.47-1.59-.38-4.33.32-8.58,1.05-12.82.1-.59.55-1.11,1.09-2.14Z"/>
  <path class="cls-1" d="M520.74,138.38c-.61-.69-1.35-1.31-1.81-2.09-2-3.37-3.61-6.91-4.61-10.72-.04-.15-.11-.3-.14-.46-.31-1.47.09-2.75.98-3.18.88-.42,2.53.28,3.25,1.42.21.33.37.71.46,1.09.91,3.87,1.83,7.74,2.67,11.63.14.64-.14,1.37-.23,2.06-.19.08-.37.15-.56.23Z"/>
  <path class="cls-1" d="M323.52,269.79c-.03,2.58-2.11,4.47-4.59,4.37-2.21-.09-3.75-2.05-3.52-4.5.03-.31.13-.62.2-.93.6-2.71,1.38-3.64,3.05-3.62,2.15.03,4.22,1.64,4.73,3.71.09.38.11.78.13.97Z"/>
  <path class="cls-1" d="M288.44,152.82c-.01,2.49-1.87,4.54-4.04,4.46-2.3-.09-3.93-1.72-3.95-3.95-.02-2.82,1.73-4.96,4.07-5,2.28-.04,3.93,1.86,3.92,4.49Z"/>
  <path class="cls-1" d="M353.42,131.13c-1.52,0-2.76-.99-2.91-2.61-.25-2.7.74-5.01,2.73-6.83.95-.86,2.22-.76,2.95.27,1.17,1.65,1.82,3.56,1.47,5.6-.33,1.95-2.4,3.58-4.25,3.57Z"/>
  <path class="cls-1" d="M411.98,261.9c.24-1.95.42-4.02.78-6.06.09-.51.66-1.23,1.11-1.31.88-.16,1.17.68,1.28,1.41.51,3.56,1,7.12,1.47,10.68.15,1.17-.14,2.29-1.02,3.07-.47.42-1.27.75-1.86.66-.4-.06-.9-.88-.98-1.42-.33-2.29-.52-4.6-.78-7.03Z"/>
  <path class="cls-1" d="M536.88,99.05c2.35.04,4.56,1.64,4.92,3.3.4,1.81-.51,3.68-2.24,4.58-1.52.8-2.72.56-3.75-.8-.67-.88-1.32-1.79-1.9-2.73-.99-1.57-.73-2.59.92-3.53.74-.42,1.59-.65,2.04-.83Z"/>
  <path class="cls-1" d="M356.5,159.18c-.19,1.67-.81,3.08-2.42,3.83-1.22.57-2.49.63-3.6-.24-1.08-.84-1.57-2.07-1.33-3.37.24-1.31.71-2.61,1.29-3.81.75-1.54,1.92-1.81,3.34-.92,1.65,1.04,2.53,2.57,2.71,4.51Z"/>
  <path class="cls-1" d="M370.92,167.62c-.3.68-.71,2.06-1.47,3.22-.84,1.29-2.62,1.6-4.09,1.04-1.52-.58-2.26-1.85-2.11-3.61.18-2.14,1.44-3.52,3.31-4.32,2.45-1.04,4.31.26,4.36,3.67Z"/>
  <path class="cls-1" d="M514.7,266.97c.08-1.27.12-2.55.24-3.81.12-1.22.75-2.11,2-2.37,1.19-.24,1.97.45,2.58,1.34,1.98,2.89.35,8.09-2.92,9.35-1.21.47-1.86.11-1.94-1.18-.07-1.11-.01-2.23-.01-3.34h.04Z"/>
  <path class="cls-1" d="M502.55,26.27c-1.09-.13-1.83-.1-2.48-.3-4.73-1.49-9.57-1.48-14.45-1.19-.24.01-.52.18-.7.09-.61-.28-1.5-.52-1.69-1.01-.34-.88.41-1.48,1.25-1.66,1-.21,2.04-.39,3.06-.42,3.93-.12,7.78.46,11.6,1.34,1.54.36,2.77,1.1,3.41,3.13Z"/>
  <path class="cls-1" d="M346.54,180.98c.07-.26.18-.97.45-1.62.82-1.94,2.6-2.77,4.44-2.12,1.59.56,2.35,2.13,1.88,4.1-.16.68-.45,1.36-.82,1.96-.95,1.53-2.37,2.12-3.82,1.71-1.39-.4-2.16-1.69-2.12-4.03Z"/>
  <path class="cls-1" d="M758.96,410.6c-.68.09-1.38.33-2.04.25-5.34-.65-10.67-1.37-16.23-2.09.62-1.62,1.83-1.82,3.08-1.73,3.57.25,7.13.56,10.69.9,1.02.1,2.06.28,3.01.65.65.25,1.15.9,1.72,1.36l-.24.65Z"/>
  <path class="cls-1" d="M487.93,145.34c1.68,3.05,1.35,6.13,1.37,9.06.01,1.95-.06,4.15-1.83,5.73-2.56-3.73-2.43-10.93.46-14.79Z"/>
  <path class="cls-1" d="M400.51,312.65c-.28,1.07-.46,2.18-.85,3.21-.52,1.35-1.52,1.82-2.86,1.55-1.33-.27-1.91-1.05-1.84-2.62.06-1.27.19-2.55.31-3.82.08-.89.2-1.81,1.19-2.17.98-.35,1.87-.04,2.68.59,1.07.83,1.25,1.98,1.39,3.25Z"/>
  <path class="cls-1" d="M450.64,302.81c.18-1.97.36-3.67.49-5.38.08-1.14.61-1.73,1.74-1.84,1.6-.14,2.9.94,3.06,2.66.18,1.96-.54,3.6-2.04,4.85-1.41,1.17-2.12,1.02-3.25-.29Z"/>
  <path class="cls-1" d="M511.13,102.27c.25-1.21.46-2.79.91-4.31.38-1.28,1.48-1.63,2.66-1.04,1.41.7,2.13,2.55,1.69,4.34-.43,1.76-2.19,3.36-3.65,3.32-1.02-.02-1.6-.73-1.61-2.31Z"/>
  <path class="cls-1" d="M495.19,239.56c.64-2.8,2.09-4.92,3.98-6.76.34-.33,1.21-.65,1.41-.48.4.33.69,1.02.7,1.57.02,1.02-.15,2.05-.33,3.06-.42,2.3-1.26,2.96-3.57,2.86-.69-.03-1.38-.15-2.2-.25Z"/>
  <path class="cls-1" d="M297.97,137.09c-.02,2.12-1.3,3.76-2.9,3.7-1.67-.07-2.62-1.69-2.32-3.98.22-1.69,1.49-3.05,2.84-3.04,1.36.01,2.4,1.46,2.38,3.33Z"/>
  <path class="cls-1" d="M362.81,294.14c.53.35,1.12.58,1.47,1,1.27,1.51,1.92,3.27,1.93,5.25,0,1.42-.65,2.31-1.75,2.43-.97.1-2.14-.82-2.44-1.92-.31-1.16.1-5.08.78-6.77Z"/>
  <path class="cls-1" d="M452.62,104.21c0,2.53-.46,3.21-1.91,3.32-1.45.1-2.46-.91-2.87-2.88-.38-1.87.11-3.01,1.53-3.51,1.58-.57,2.87.15,3.17,1.81.1.54.07,1.1.08,1.27Z"/>
  <path class="cls-1" d="M545.25,249.13c-1.31-2.2-.72-4.44.12-6.59.19-.49,1.2-1.04,1.71-.94.66.13,1.43.77,1.73,1.4,1.17,2.48-.62,5.57-3.56,6.13Z"/>
  <path class="cls-1" d="M339.51,290.07c-.44-2.58.16-4.76.47-6.93.06-.46.79-1.02,1.3-1.15.38-.1,1.06.31,1.37.69,1.27,1.57.63,5.65-1.07,6.76-.53.35-1.25.39-2.07.63Z"/>
  <path class="cls-1" d="M342.63,139.77c-.05,1.91-1.33,3.44-2.93,3.52-1.04.05-1.8-.38-1.76-1.46.03-1.02.22-2.07.56-3.03.46-1.29,1.47-1.75,2.65-1.44,1.04.27,1.52,1.05,1.48,2.41Z"/>
  <path class="cls-1" d="M543.19,262.44c-.4.57-.63,1.12-1.04,1.42-2.77,2.02-5.56,4.01-8.39,5.95-.41.28-1.04.26-1.76.41-.03-1.03.48-1.59,1.1-2.05,2.23-1.67,4.47-3.33,6.71-4.99.9-.66,1.78-1.42,3.37-.74Z"/>
  <path class="cls-1" d="M596.88,279.95c4.07-2.22,8.07-2.15,12.31-1.81-1.83,2.02-8.57,3.04-12.31,1.81Z"/>
  <path class="cls-1" d="M467.99,97.97c1.9,0,3.75,2.7,3,4.17-.25.49-.86.93-1.4,1.11-.95.31-2.16-.39-2.77-1.4-.62-1.03-.59-2.64.15-3.33.32-.3.8-.43,1.02-.55Z"/>
  <path class="cls-1" d="M556.91,90.63c-.04,1.35-.89,2.24-2.03,2.15-1.29-.11-2.52-1.63-2.5-3.08.03-1.26.93-2.19,2.08-2.14,1.3.06,2.49,1.55,2.45,3.07Z"/>
  <path class="cls-1" d="M555.98,153.04c-.61.69-1.11,1.54-1.85,1.94-.41.22-1.35-.19-1.85-.57-.91-.7-1.57-1.71-1.05-2.9.29-.65.89-1.47,1.48-1.6.61-.13,1.53.32,2.04.81.53.5.74,1.35,1.22,2.32Z"/>
  <path class="cls-1" d="M518.03,215.38c-.3.47-.4.69-.55.86-1.79,2.01-2.52,1.89-3.72-.57-.38-.77-.68-1.53.17-2.13.78-.55,1.69-.59,2.45.03.6.5,1.07,1.15,1.66,1.81Z"/>
  <path class="cls-1" d="M436.88,411.95c2.81-.94,5.27-.9,7.84.18-1.89,1.43-4.45,1.38-7.84-.18Z"/>
  <path class="cls-1" d="M376.56,291.51c-1.04-.05-2.28-1.47-2.03-2.56.11-.5.69-1.14,1.16-1.24.96-.22,2.35,1.25,2.37,2.29.02.85-.68,1.55-1.5,1.51Z"/>
  <path class="cls-1" d="M571.87,232.16c-.02.89-.85,1.69-1.69,1.63-.88-.07-1.59-.98-1.59-2.03,0-.98.5-1.45,1.46-1.41,1,.04,1.83.87,1.81,1.82Z"/>
  <path class="cls-1" d="M537.12,209.34c-.76.84-1.22,1.95-2.52,1.35-.69-.32-.58-1.97.08-2.55.59-.52.97-.35,2.44,1.21Z"/>
  <path class="cls-1" d="M548.3,92.56c-1.5.06-1.98-.79-2.04-2.13,2.22.01,2.38.18,2.04,2.13Z"/>
  <path class="cls-1" d="M449.09,57.34c.65-.64,1.31-1.27,2.12-2.07q.32,2.05-1.77,2.48c-.12-.14-.24-.27-.35-.41Z"/>
  <path class="cls-1" d="M346.24,25.52q1.96.45,2.34,2.6c-.78-.87-1.56-1.73-2.34-2.6Z"/>
  <path class="cls-1" d="M550.63,141.03c.21.6.43,1.19.64,1.79-.15.07-.31.14-.46.21-.27-.57-.55-1.15-.82-1.72.21-.09.43-.19.64-.28Z"/>
  <path class="cls-1" d="M478.42,287.37c1.17.86,1.27,1.38.59,1.85-.16.11-.74-.05-.74-.09,0-.5.07-1.01.15-1.76Z"/>
  <path class="cls-1" d="M344.02,407.02c-1.47.87-2.92.82-4.53.02,1.61-1.17,3.07-.7,4.53-.02Z"/>
</svg>