<?xml version="1.0" encoding="UTF-8"?>
<svg id="Calque_1_Image" data-name="Calque 1 Image" xmlns="http://www.w3.org/2000/svg" viewBox="0 0 850.44 603.53">
  <defs>
    <style>
      .cls-1 {
        stroke-width: 0px;
      }
    </style>
  </defs>
  <path class="cls-1" d="M155.87,304.3c.65.49,1.06.85,1.52,1.14,2.24,1.38,2.77,1.12,4.12-1.09.77-1.25,1.88-2.36,3.03-3.3,1.59-1.31,3.37-2.4,5.25-3.72-.59-.53-1.04-.92-1.48-1.34-1.24-1.19-1.13-2.08.53-2.6,1.59-.49,3.27-.78,4.93-.91,3.3-.26,6.53.31,9.72,1.15.7.18,1.39.38,2.08.58,1.86.55,3.5.51,5.11-.92,1.76-1.56,4.06-1.88,6.34-1.59,2.05.26,4.08.73,6.08,1.27,3.05.82,4.12.37,4.9-2.7.63-2.47.94-5.02,1.47-7.52.25-1.16.55-2.34,1.03-3.42.99-2.24,1.44-4.56,1.36-7-.14-4.16-.36-8.31-.38-12.47-.02-3.83.21-7.66.29-11.5.03-1.35-.1-2.71-.1-4.06,0-1.03,0-2.08.2-3.08.43-2.19.95-4.37,1.49-6.54.53-2.12,1.92-3.5,3.96-4.13,1.83-.56,3.7-1.01,5.58-1.4,2.32-.47,3.04.04,3.37,2.42.18,1.3.5,2.28,2.03,2.5,4.11.6,8.21,1.28,12.32,1.91.28.04.59-.08,1.17-.16-.4-.7-.58-1.34-1-1.72-2.09-1.9-4.29-3.58-7.31-3.72-1.32-.06-2.75-.16-3.54-1.84.47-.27.89-.68,1.36-.76,1.41-.26,2.84-.56,4.26-.56,4.82.01,8.39,2.95,9.37,7.67.33,1.58.7,3.06,1.75,4.38,1.18,1.49,1.13,3.33.62,5.06-.43,1.46-.33,2.8.18,4.21.97,2.69,1.02,5.5.76,8.3-.51,5.41-1.09,10.82-1.63,16.22-.06.64-.24,1.32-.09,1.91.72,2.82-.04,5.56-.36,8.32-.08.71-.19,1.44-.15,2.15.09,1.63-.19,3.14-.9,4.64-.92,1.96-.26,2.82,1.95,2.73,1.2-.05,2.39-.21,3.58-.37,9.14-1.22,18.36-.88,27.54-1.37.56-.03,1.12-.01,1.68-.08,1.63-.18,2.03-.6,2.11-2.3.05-1.12-.03-2.24.02-3.36.23-4.55.5-9.09.74-13.64.07-1.36.19-2.72.08-4.07-.26-3.29-1.82-5.74-4.93-7.07-.95-.41-1.92-.8-2.84-1.28-3.73-1.92-4.54-5.8-1.81-9,.77-.9,1.73-1.67,2.72-2.32,1.87-1.22,3.76-2.46,5.78-3.41,3.79-1.78,6.76-4.45,9.43-7.61,1.85-2.19,3.82-4.32,5.98-6.19,2.47-2.13,5.43-3.37,8.81-3.18.64.04,1.28.09,1.9.25,2.78.71,4.02,2.47,3.56,5.33-.28,1.73-.83,3.41-1.29,5.1-.26.98-.56,1.95-.49,3.31.72-.35,1.5-.62,2.16-1.06,1.46-.99,2.83-2.1,4.27-3.1,6.11-4.23,12.86-5.48,20.1-4.14,4,.74,8.02,1.45,11.94,2.54,5.2,1.44,9.88,4.06,14.26,7.23,2.58,1.87,4.56,4.21,6,7.05,4.25,8.4,7.37,17.19,8.85,26.49.45,2.81.26,5.74.28,8.61.03,4.39,0,4.41,4.38,4.38,3.44-.02,6.88-.09,10.31-.17.8-.02,1.59-.13,2.38-.23.92-.12,1.41-.71,1.53-1.59.06-.39.08-.8.04-1.2-.55-6.04-.23-12.16-1.51-18.13-.25-1.17-.57-2.32-.89-3.48-.9-3.27-2.73-5.7-5.99-7-1.24-.5-2.4-1.29-3.46-2.13-3.15-2.49-3-6.49.37-8.64,7.48-4.77,15.02-9.45,22.54-14.17.2-.13.41-.24.63-.36,3.15-1.65,4.52-1.17,6,2.11.39.87.73,1.78,1.19,2.61.54.99,1.39,1.28,2.43.76.64-.32,1.28-.67,1.88-1.05,3.53-2.25,7.33-3.94,11.31-5.17,3.2-.99,6.51-1.78,9.9-1.47,5.51.5,9.95,3.16,12.92,7.75,4.03,6.22,4.93,12.9,1.77,19.84-.91,2-2.29,3.64-4.05,4.96-2.52,1.88-5.24,2.28-8.15,1.16-3.43-1.33-6.3-3.4-8.38-6.52-1.42-2.13-2.91-4.21-4.47-6.23-1.54-2-2.64-2.08-4.66-.57-1.86,1.39-2.94,3.35-3.82,5.43-2.08,4.87-3.46,9.95-4.42,15.16-.89,4.82-1.13,9.68-.92,14.57.15,3.37.75,4.02,4.18,4.06,8.4.11,16.79.26,25.19.27,7.03,0,14.07-.16,21.1-.26,2.43-.04,4.72-.64,6.95-1.64,5.25-2.36,10.56-4.57,15.8-6.96,2.9-1.33,5.7-2.89,8.53-4.37,3.88-2.03,5.93-5.49,7.25-9.46.65-1.97.39-4.03-.67-5.81-2.04-3.43-4.17-6.81-6.38-10.13-1.17-1.76-3-2.58-5.09-2.8-4.34-.48-8.07.67-10.99,4.05-3.01,3.5-6.65,6.21-10.7,8.39-3.75,2.01-8.35-.44-8.66-4.69-.47-6.48,1.64-11.8,7.19-15.48,1.33-.88,2.72-1.7,4.18-2.33,3.74-1.62,7.52-3.14,11.31-4.64,1.11-.44,2.28-.85,3.45-.96,6.48-.61,12.93-.56,19.25,1.27,2.5.73,4.64,2.13,6.6,3.81,4.05,3.47,7.27,7.61,10,12.18,1.75,2.93,2.07,6.21,2.31,9.45.18,2.53-.17,5.1-.28,7.65-.06,1.52-.16,3.03-.17,4.55-.02,5.12,0,10.24,0,15.36,0,.4,0,.8.02,1.2.11,2.72.59,3.21,3.27,3.26,3.92.07,7.84.12,11.75.18,4.16.07,8.31.15,12.47.22.4,0,.8.05,1.2.02,2.25-.16,2.92-.8,2.54-3.04-.82-4.93-.43-9.89-.61-14.84-.2-5.78.61-11.48,1.15-17.21.28-2.92.11-5.9.06-8.84-.1-5.99-.3-11.99-.37-17.98-.05-4.24.05-8.47.08-12.71.01-1.28-.11-2.58.1-3.83.91-5.5-.13-10.82-1.3-16.14-.61-2.81-1.32-5.6-1.9-8.41-.86-4.17-3.11-7.29-6.83-9.37-1.18-.66-2.37-1.34-3.48-2.12-3.03-2.15-3.61-5.87-1-8.5,2.12-2.13,4.54-4.08,7.13-5.59,3.61-2.1,7.17-4.19,10.14-7.18.44-.45.99-.82,1.53-1.15,4.43-2.72,8.87-5.42,13.3-8.13,1.46-.9,2.99-1.81,4.67-.72,1.65,1.07,1.72,2.92,1.41,4.55-.89,4.69-.56,9.4-.65,14.11-.03,1.51-.34,3.02-.37,4.53-.15,5.9-.93,11.76-1.1,17.65-.13,4.53.45,9.09.76,13.63.22,3.2.21,6.38-.49,9.54-.14.62-.18,1.26-.21,1.9-.25,7.19-.61,14.38-.68,21.57-.07,6.23.11,12.47.33,18.7.17,4.71.7,9.41.83,14.12.21,7.59.23,15.19.33,22.78,0,.24,0,.48,0,.72.06,3.29.27,3.52,3.53,3.69,8.3.42,16.6.98,24.91,1.18,6.71.16,13.43-.18,20.15-.18,3.52,0,7.03.32,10.55.39,8.23.16,16.47.2,24.7.41,3.82.1,7.64.49,11.46.72,2.15.13,4.31.2,6.47.25,2.63.06,5.23-.09,7.87-.33,3.22-.3,6.53.1,9.78.41,7.56.72,15.11,1.55,22.66,2.36,1.35.15,2.69.37,4.02.65.66.14,1.28.48,2.05.79-.83,1.1-1.79.99-2.72,1.05-5.55.36-11.01-.41-16.46-1.28-3.25-.52-6.48-.98-9.67.45-.67.3-1.57.16-2.36.14-8.47-.22-16.94-.5-25.41-.64-1.56-.03-3.17.38-4.7.81-4.14,1.16-8.14,1.16-12.21-.48-1.65-.67-3.59-.81-5.4-.87-9.27-.29-18.54-.47-27.81-.7-2.4-.06-4.79-.2-7.19-.25-2.55-.06-5.11.01-7.66-.09-5.03-.21-10.06-.43-15.08-.77-3.19-.21-6.36-.66-9.54-.95-1.87-.17-2.38.29-2.29,2.09.08,1.68.24,3.35.45,5.02.19,1.48.64,1.88,2.17,2.06.95.11,1.92.1,2.87.18,1.17.1,2.13.54,2.85,1.78-.48.24-.85.55-1.24.59-1.03.11-2.06.15-3.1.14-1.83-.02-2.45.29-2.59,1.42-.17,1.37.76,2.73,2.22,2.93,1.34.19,2.73.28,4.06.14,3.62-.37,7.18-.1,10.75.51.94.16,1.91.16,2.87.19,10.15.37,20.29.78,30.44,1.08,4.87.14,9.75-.02,14.63.13,6.47.2,12.93.78,19.39.82,6.62.05,13.25-.35,19.88-.56.48-.02.98-.05,1.42-.22,3.75-1.48,7.68-1.25,11.59-1.32,6.64-.11,13.27-.26,19.91-.4.46,0,.92-.09,1.83-.19-1.6-1.04-3.07-.99-4.41-1.17-2.13-.29-4.3-.45-6.45-.49-15.43-.27-30.86-.49-46.29-.73-.73-.01-1.47-.09-2.2-.14,0-.17,0-.33,0-.5.49-.1.98-.28,1.47-.3,11.83-.34,23.65-.83,35.48-.92,7.59-.06,15.18.47,22.77.75,4.87.18,9.75.39,14.62.57,1.39.05,2.61.46,3.83,1.17.98.57,2.22.9,3.36.94,6.39.2,12.78.34,19.17.38,2.79.02,5.58-.24,8.36-.41.43-.03.85-.29,1.42-.49-.91-1.05-1.97-.96-2.96-1.01-5.51-.27-11.02-.51-16.53-.78-.83-.04-1.66-.18-2.62-.29.48-1.32,1.39-1.34,2.23-1.35,2.32-.03,4.63-.01,6.95-.02,1.9,0,3.82.17,5.65-.85-.03-1.64-1.13-2.06-2.36-2.2-5.15-.61-10.31-1.2-15.47-1.73-1.42-.15-2.62-.48-3.38-1.84.68-1.29,1.75-1.06,2.76-1.02,5.92.24,11.76,1.16,17.61,2.07,5.84.92,11.72,1.57,17.58,2.34,3.49.46,6.98.87,10.46,1.38,1.09.16,2.17.53,3.22.9,1.25.44,2.37,1.06,2.32,2.67-.04,1.27-.64,1.98-2.53,2.42-3.34.79-6.7,1.56-10.08,2.11-6.23,1-12.48,1.93-18.74,2.71-3.87.49-7.76.85-11.69.1-1.62-.31-3.35-.14-5.02-.09-11.11.32-22.21.68-33.32,1.01-1.36.04-2.72-.07-4.08-.09-3.91-.05-7.78.29-11.68.77-5.06.62-10.22.61-15.33.57-9.03-.09-18.06-.5-27.09-.6-9.68-.1-19.35-.03-29.03.04-1.91.01-3.81.37-5.72.6-4.94.61-9.87.5-14.83.08-4.78-.41-9.58-.71-14.37-.64-2.92.04-5.82.86-8.73,1.37-.91.16-1.34.82-1.38,1.72-.02.32-.04.67.07.95,2.03,5.34,3.27,11.12,8.04,14.99,2.35,1.9,2.69,4.37,2.11,7.15-.32,1.52-1.21,2.41-2.68,2.69-.86.16-1.74.24-2.62.24-4.96.02-9.92-.03-14.88.03-2.15.02-4.31.3-6.46.35-2.06.04-4.13-.1-6.2-.1-2.63,0-5.26.03-7.89.1-2.07.05-4.15.35-6.21.25-3.33-.16-4.91-2.79-3.34-5.71.93-1.73,2.28-3.28,3.65-4.71,3.76-3.93,6.68-8.36,8.55-13.47.19-.52.41-1.05.5-1.59.29-1.83-.42-2.88-2.26-2.86-6.63.09-13.26.26-19.88.52-1.39.05-2.76.6-4.35.98,1.45,3.31,3.48,5.67,6.41,7.21.77.41,1.61.71,2.42,1.05,3.03,1.26,3.59,2.91,1.99,5.86-2.08,3.83-4.83,7.15-8,10.12-2.15,2.02-4.74,3.26-7.57,3.95-3.85.94-7.48.32-10.78-1.87-1.66-1.1-3.31-2.26-4.82-3.55-1.69-1.44-3.37-1.54-5.31-.6-3.09,1.5-6.21,2.94-9.35,4.32-3.19,1.41-6.56,1.97-10.05,1.89-2.32-.05-4.64-.09-6.96,0-4.18.17-8.15-.69-11.8-2.63-2.74-1.45-5.39-3.14-7.91-4.96-2.89-2.09-4.75-5.07-5.38-8.54-.72-4-1.09-8.06-1.45-12.12-.24-2.64-.31-2.87-2.91-2.95-5.51-.18-11.03-.27-16.54-.54-1.98-.1-3.95-.52-5.9-.96-.87-.2-1.66-.79-2.47-1.2.35-1.24,1.09-1.67,2.01-1.74,1.83-.15,3.66-.25,5.49-.33,3.59-.16,7.17-.28,10.76-.43,2.24-.09,4.47-.19,6.71-.31,1.94-.11,3.36-.98,4-2.88.8-2.38-.52-4.09-2.96-3.6-2.26.45-4.45.26-6.67-.1-.68-.11-1.34-.37-2.16-.6.67-1.2,1.6-1.28,2.55-1.21,1.99.15,3.99.27,5.97.55,2.76.39,4.8-.54,6.32-2.89,1.66-2.57,3.71-4.79,6.24-6.57.8-.56,1.38-1.45,2.01-2.13-.76-1.3-1.78-1.08-2.7-1.1-4.4-.11-8.79-.2-13.19-.31-9.27-.22-18.54-.44-27.81-.66-.32,0-.64,0-.96,0-2.03.07-2.44.35-2.64,2.29-.28,2.71-.42,5.43.48,8.44,1.15,0,2.39,0,3.63,0,.96,0,1.93-.03,2.87.07,1.02.11,1.87.57,1.91,1.77.05,1.24-.83,1.67-1.85,1.78-1.51.17-3.03.24-4.54.36-.78.06-1.57.15-2.47.24-.4,3.51-.19,6.82.34,10.14.19,1.17.26,2.37.35,3.55.12,1.51.11,3.04.31,4.53.6,4.49,2.93,7.82,6.78,10.21,2.3,1.43,4.48,3.08,6.63,4.73.8.61,1.55,1.42,2.04,2.3,1.54,2.74.58,5.26-2.35,6.39-2.13.82-4.37.94-6.62.72-4.37-.42-8.74-.99-13.12-1.27-2.54-.16-5.11-.02-7.65.2-4.32.38-8.61.6-12.9-.26-2.27-.46-4.4-1.18-5.07-3.76-.65-2.54.71-4.27,2.48-5.81,1.14-1,2.2-2.11,3.36-3.08,2.67-2.23,4.1-5.09,4.28-8.53.13-2.47.19-4.96.08-7.43-.09-1.97-.72-2.3-2.63-2.08-2.93.33-5.87.55-8.8.86-.87.09-1.77.18-2.57.49-2.01.77-3.99,1.53-6.19,1.75-.9.09-1.72,1.01-2.56,1.58-.18.12-.27.39-.39.6-4.04,7.65-10.18,13.49-16.57,19.09-5.82,5.1-12.62,7.79-20.32,8.9-6.09.88-11.91.57-17.77-1.05-2.15-.59-4.37-.96-6.58-1.33-2.04-.35-2.73.12-3.32,2.15-1.92,6.56-1.77,13.25-1.29,19.98.32,4.46.62,8.94.54,13.4-.16,9.83-.65,19.66-.84,29.49-.07,3.75.34,7.5.46,11.26.1,3.27.24,6.55.13,9.82-.11,3.13-1.38,5.9-3.37,8.3-1.68,2.03-3.47,3.98-5.14,6.02-2.43,2.97-4.66,6.1-7.22,8.95-2.18,2.43-4.59,4.66-7.09,6.77-1.75,1.48-3.51.96-4.47-1.16-.51-1.13-.86-2.44-.89-3.67-.07-2.63.13-5.27.2-7.91.08-3.2.11-6.39.22-9.59.07-2.07.22-4.14.36-6.21.17-2.47.33-4.94.55-7.4.23-2.54.56-5.08.8-7.62.21-2.23.43-4.45.54-6.68.27-5.75.57-11.5.69-17.25.08-4-.01-7.98.81-11.94.34-1.62.12-3.35.16-5.02.15-7.6-.07-15.18-.79-22.76-.45-4.78-.26-9.57.48-14.35.25-1.63.18-3.36-.04-5-.4-2.88-.51-5.71.06-8.58.25-1.23.23-2.55.14-3.82-.11-1.56-.67-1.94-2.2-1.76-.39.05-.78.17-1.17.26-3.43.81-6.88,1.49-10.44,1-.54-.07-1.13-.01-1.67.09-2.75.5-5.39.05-8.02-.79-3.74-1.2-7.59-.93-11.42-.67-1.54.1-1.94.73-2,2.69-.13,4.4-.23,8.79-.33,13.19-.05,2.24-.22,4.49-.08,6.71.26,3.98.68,7.95,1.12,11.92.48,4.29,1.28,8.55,1.52,12.85.21,3.89-.08,7.82-.33,11.73-.05.85-.7,1.81-1.35,2.44-.96.94-2.1,1.74-3.29,2.37-.72.38-1.78.63-2.49.39-2.47-.84-4.9-.41-7.36-.14-2.22.25-4.45.51-6.68.71-2.23.2-4.27-.26-6.03-1.79-.58-.5-1.37-.81-2.12-1.04-3.55-1.13-4.7-2.57-4.5-6.31.26-4.71.65-9.41,1.05-14.11.72-8.36,1.93-16.68,1.15-25.11-.33-3.51-.79-6.95-2.14-10.26-.5-1.22-.56-2.64-.71-3.98-.28-2.56-.81-3.12-3.34-3.55-9.19-1.58-18.45-1.51-27.73-1.39-6.26.09-12.42.87-18.59,1.68-2.31.31-4.57.19-6.87-.52-2.43-.75-4.96-1.31-7.49-1.59-6.14-.68-12.08-2.27-18.08-3.62-6.15-1.38-12.37-2.49-18.58-3.63-2.77-.51-5.44.19-7.9,1.42-4.01,2.01-8.18,2.59-12.58,1.93-2.87-.43-5.72-.36-8.57.34-1.7.42-3.47.62-5.21.73-3.77.24-6.8-1.22-8.53-4.63-3.25-6.4-3.42-12.98-.07-19.35,2.57-4.88,6.94-7.32,12.46-6.92,9.61.69,19.03,2.37,27.85,6.51,1.51.71,3.07.74,4.68.43,9.98-1.94,20.03-3.23,30.23-3.31,2.93-.02,5.69.35,8.39,1.55,1.65.73,3.49,1.05,5.25,1.55.31.09.62.14.93.22,2.35.67,2.61,1.4,1.14,3.31-.97,1.27-2.03,2.47-2.96,3.77-.68.95-1.21,2-1.85,3.08ZM330.98,288.91c3.97.15,8.28.34,12.59.48,2.95.1,5.91.19,8.86.19,2.04,0,2.57-.56,2.49-2.6-.05-1.19-.3-2.37-.53-3.54-1.25-6.41-3.32-12.48-7.15-17.87-3.34-4.7-7.56-8.31-13.14-9.9-3.35-.95-6.86-1.49-10.34-1.84-3.7-.37-7.32.38-10.68,2.09-3.04,1.55-4.97,3.91-5.39,7.4-.54,4.44-1.21,8.86-1.68,13.3-.38,3.58-.38,7.16.35,10.73.27,1.33.94,1.96,2.24,2,.64.02,1.28.03,1.92.01,6.71-.15,13.41-.3,20.46-.46ZM529.1,307.09c-1.3,1.42-2.95,1.18-4.5,1.16-10.07-.13-20.14-.38-30.21-.36-2.67,0-5.38.63-7.99,1.31-2.31.61-4.51,1.53-6.97,1.57-1.73.03-2.87.99-2.58,1.87.44,1.36,1.66,1.27,2.79,1.24,11.42-.27,22.84-.61,34.27-.78,3.66-.05,7.32.37,10.98.54,5.51.25,11.02.47,16.52.71,3.83.17,7.66.37,11.5.49.86.03,1.77-.08,2.59-.33,1.19-.36,1.83-1.58,1.7-2.84-.14-1.36-1.09-1.61-2.22-1.67-2.39-.12-4.79-.25-7.18-.39-3.91-.22-7.82-.42-11.73-.7-1.35-.1-2.7-.38-3.14-1.96.61-1.39,1.74-1.63,2.99-1.73,3.72-.28,7.52-.1,10.99-1.9.54-.28,1.24-.28,1.87-.33,1.75-.15,3.51-.24,5.26-.42.7-.07,1.43-.21,2.06-.5,1.23-.58,2.23-2.03,1.93-2.77-.49-1.21-1.65-1.06-2.67-1.15-5.02-.42-10.04-.78-14.92-2.15-.83-.23-1.74-.2-2.61-.25-7.34-.45-14.67-.9-22.01-1.35-6.54-.4-13.08-.8-19.62-1.18-2.02-.12-4.13-.09-5.75,1.2-2.67,2.14-5.19,4.48-7.71,6.79-.72.66-1.09,1.56-.34,2.76h2.27c4.96,0,9.91-.05,14.87.03,1.99.03,3.97.35,5.95.55,2.22.23,4.43.59,6.66.68,3.83.15,7.67.1,11.51.19,1.91.05,3.83.18,5.43,1.65ZM332.59,301.38c0,.21.02.41.02.62-.8.18-1.59.43-2.4.52-1.91.22-2.68.63-2.6,1.48.09.88,1.06,1.43,2.72,1.39,2.16-.05,4.31-.23,6.46-.28,5.35-.13,10.7-.23,16.06-.33,2.87-.05,3.29-.49,3.14-3.43-.06-1.28-.11-2.56-.21-3.83-.18-2.34-.65-2.77-2.93-2.77-1.2,0-2.4.06-3.6.06-5.27.02-10.52-.02-15.77.81-5.24.83-10.51.63-15.66-.98-.89-.28-1.9-.31-2.84-.27-8.7.36-17.42.52-26.1,1.21-10.69.84-21.36,1.37-32.08,1.11-2.64-.06-5.27-.16-7.91-.11-.9.02-1.88.3-2.66.74-.42.24-.76,1.14-.64,1.62.1.4.91.85,1.43.87,2.02.08,3.95.43,5.82,1.23.56.24,1.25.32,1.87.28,2.86-.2,5.74-.36,8.58-.76,2.36-.34,4.68-1.01,7.02-1.51,1.53-.33,3.05-.34,4.33.74,1.17,1,2.52,1.26,4,1.31,6.71.24,13.41.62,20.12.75,4.55.09,9.1-.12,13.65-.26,5.83-.18,11.65-.46,17.48-.64.89-.03,1.8.26,2.7.4ZM352.11,321.06c-1.68-1.17-3.22-.98-4.72-.89-11.09.69-22.17,1.39-33.26,2.09-1.83.12-3.67.24-5.49.48-1.41.19-1.82.81-1.37,2.16.79,2.34,1.53,4.74,2.68,6.91.66,1.26,1.88,2.52,3.16,3.1,2.52,1.14,5.2,2.08,7.92,2.59,3.28.61,6.67.64,10,1.01,5.63.61,10.26-1.21,13.68-5.74,2.16-2.86,4.17-5.85,6.16-8.83.56-.83.82-1.87,1.24-2.88ZM379.32,306.69c-1.6,2.26-2.23,3.98-2.32,5.73-.06,1.22.35,2.02,1.63,2.21.47.07.94.19,1.42.21,4.23.22,8.45.46,12.68.61,2.86.1,3.37-.45,3.44-3.25,0-.4.01-.8,0-1.2-.09-2.08-.44-2.51-2.44-2.87-1.02-.18-2.06-.27-3.08-.43-.72-.12-1.46-.25-2.21-1.19,2.24-.23,4.13-.42,6.01-.62,1.96-.21,2.63-.8,2.52-2.74-.18-3.02-.53-6.04-.92-9.05-.17-1.28-.98-1.73-2.26-1.42-.61.15-1.24.4-1.72.78-1.4,1.11-2.97,1.44-4.71,1.39-2.24-.06-4.47-.04-6.71,0-2.79.05-3.34.68-3.18,3.49.04.79.29,1.62.13,2.37-.47,2.29,0,4.27,1.71,5.99ZM489.37,319.79s0,.02,0,.03c-3.52,0-7.03,0-10.55,0-.16,0-.32-.02-.48-.01-2.27.07-2.89.88-2.31,3.02.43,1.58,1.23,2.92,2.41,4.07,4,3.92,8.86,5.81,14.36,6.44,7.62.88,11.56-6.16,11.8-11.12.05-1.13-.48-1.86-1.6-2.01-1.34-.18-2.69-.37-4.05-.39-3.2-.06-6.39-.02-9.59-.02ZM233.59,267.38c-.32.05-.53.02-.62.11-1.82,1.7-3.77,3.11-6.19,3.92-1.29.43-1.52,1.91-.43,2.96,2.17,2.09,2.42,4.75,2.71,7.46.14,1.31,0,2.55-.82,3.64-.73.95-.9,1.97-.65,3.16.54,2.66.92,5.35,1.5,7.99.53,2.43.42,4.75-.73,6.98-.5.96-.63,1.89-.28,2.99.54,1.67.13,3.16-1.31,4.27-3.22,2.49-2.42,4.67-1.17,7.16.84,1.68,1.92,1.8,3.07.25.84-1.13,1.57-2.42,2.04-3.75,2.03-5.73,2.43-11.67,2.09-17.71-.25-4.59-1.62-9.16-.41-13.8.08-.29.02-.64-.05-.95-.87-4.21-.6-8.25,1.63-12.04.51-.86.67-1.82-.39-2.63ZM227.91,267.25c2.94.45,4.19.07,4.95-1.9.99-2.6,1.79-5.29,2.5-7.98.2-.75.06-1.95-.42-2.44-1.42-1.42-1.55-3.1-1.45-4.87.08-1.42.28-2.84.46-4.26.19-1.44-.27-2.24-1.52-2.53-1.21-.28-1.97.28-2.3,1.79-.24,1.09-.33,2.21-.54,3.31-.16.86-.68,1.46-1.57,1.6-.93.14-1.48-.43-1.86-1.2-.44-.9-.89-1.79-1.36-2.74-1.79,1.54-2.24,2.67-2.23,5.23.02,2.99,1.35,7.38,2.52,8.31,1.41-1.33.26-3.9,2.28-4.94,1.01.6,1.37,1.44,1.28,2.48-.11,1.28.26,2.34,1.16,3.26.24.24.25.7.46,1.33-1.51.42-2.9.8-4.33,1.2q2.18,2.22,1.97,4.36ZM320.54,309.5c.22.32.3.6.48.67,1.91.78,3.4,1.96,4.38,3.86.3.58,1.25,1.12,1.93,1.16,3.77.2,7.63,1.18,11.23-.94.45-.27,1.07-.3,1.62-.36,3.96-.47,7.92-.89,11.88-1.38.85-.11,1.75-.28,2.5-.68.95-.5.88-1.65-.06-2.06-.5-.22-1.08-.27-1.63-.31-2.46-.19-4.93-.41-7.4-.52-6.21-.27-12.42-.53-18.64-.68-2.12-.05-4.21.39-6.3,1.24ZM124.39,306.95c1.12,1.01,2.26,1.56,3.22.76,1.38-1.15,3.12-2.45,3.57-4.01.77-2.72,2.57-4.1,4.68-5.45,1.06-.68,1.9-.57,2.69.3-.01,1.21-.77,1.69-1.62,2.24-1.73,1.12-2.12,2.37-1.56,4.7,2.67-.38,4.18-2.45,5.89-4.12,1.45-1.42,2.76-3.03,2.94-5.41-.84-.14-1.45-.33-2.06-.32-2.64.02-5.27.03-7.91.17-2.59.14-5.01.96-7.26,2.24-1.5.85-2.35,2.08-2.37,3.89.45.29.85.54,1.24.81,1.48,1.03,1.53,1.46.23,2.78-.49.5-1.08.91-1.69,1.42ZM79.08,291.14c.56,2.94.87,3.24,3.45,3.79,2.79.6,5.54.44,8.28-.32,2.68-.74,2.73-.7,4.14,1.69.16.27.34.54.56.77.68.72,1.39.65,2.08,0,.92-.87.82-1.88-.41-2.78-2.88-2.1-6.22-3.3-9.6-4.17-2.81-.73-5.69-.23-8.49,1.02ZM240.53,263.75c.84-3.07,2.04-5.78,1.43-8.72-.65-3.19-.49-6.34-.06-9.53.22-1.65.2-3.34.21-5.02,0-.96-.42-1.81-1.5-1.83-1.88-.02-3.77.09-5.57.83.05,1.36.77,1.97,1.63,2.65,2.74,2.15,4.07,5.03,3.84,8.53-.12,1.83-.44,3.65-.61,5.47-.14,1.52-.73,2.76-1.99,3.66-.37.27-.7.6-1.1.94.74,1.62,2.11,2.22,3.71,3.02ZM234.08,343.93c.19-.96.37-1.4.36-1.83-.16-3.82-.3-7.63-.57-11.44-.11-1.53-.81-2.87-2.1-3.85-2.07,3.31-1.14,10.61,2.31,17.12ZM496.99,289.75c2.16.82,4.56,1.03,7.11.78,1.05-.1,1.88-.43,2.18-1.5.34-1.23.16-2.38-.74-3.33-.75-.8-1.73-.92-2.63-.44-1.61.86-3.17,1.82-4.69,2.84-.48.32-.74.98-1.23,1.66ZM186.73,302.47c-2.96-.92-5.6-.1-8.11,1.16-1.35.68-1.17,1.93.21,2.7,1.56.87,3.21.8,4.87.43,2.94-.66,3.11-.89,3.03-4.29ZM89.63,300.54c-1.93-2.05-4.76-2.43-7.43-3.14-.83-.22-1.34.34-1.6,1.1-.36,1.04.02,2.2,1.12,2.88,1.48.92,3.03,1.73,4.32,2.47,1.24-1.14,2.32-2.14,3.58-3.3ZM287.88,311.57c-.72,2.9-.13,3.74,2.55,3.85,2.48.11,4.01-.95,5.06-3.6-2.47-1.11-4.98-.65-7.61-.25ZM115.68,298.25c-.5-.25-.9-.5-1.34-.67-1.44-.56-2.97-1.06-4.34-.05-1.49,1.1-.67,2.8-.79,4.26,0,.08,0,.16.03.24.23.92.84,1.19,1.61.74,1.92-1.11,3.83-2.26,4.83-4.52ZM72.51,300.15c1.79-2.34,2.03-4.39.81-6.31-3.06,1.57-3.35,3.46-.81,6.31ZM231.93,349.92c-.69.94-1.42,1.68-1.83,2.57-.25.55-.26,1.56.09,1.94.36.4,1.29.43,1.95.36.89-.09,1.34-.74,1.36-1.67.02-1.17-.27-2.19-1.57-3.21ZM220.33,379.18c.21,1.47,1.69,4.27,2.58,4.65.37.16.93-.11,1.62-.22-.82-1.02-1.4-1.77-2.01-2.5-.62-.73-.91-1.86-2.19-1.94ZM156.49,298.32c1.12.05,1.92-.46,1.99-1.55.03-.48-.45-1.18-.9-1.43-.3-.17-1.11.13-1.4.47-.74.86-.53,1.75.31,2.52ZM236.48,363.16c-1.44,2.14-1.41,2.27.52,3.19-.2-1.21-.36-2.2-.52-3.19ZM231.99,383.16q2.03.04,2.88-.64-1.78-.42-2.88.64ZM233.2,360.22c-.49-1.07-1.06-1.48-1.74-.82-.15.15-.07.54-.1.82h1.83ZM180.99,296.68c-1.23.03-1.27.03-1.28.84,0,.21.3.41.61.82.28-.7.46-1.15.67-1.66ZM218.55,241.66c.21-.06.42-.12.62-.18-.07-.38-.14-.76-.21-1.15-.27.06-.53.11-.8.17.13.39.25.77.38,1.16Z"/>
  <path class="cls-1" d="M349.41,301.24c-2.39,1.71-4.33.89-6.83.19,2.45-1.11,4.38-.99,6.83-.19Z"/>
</svg>